<svg xmlns="http://www.w3.org/2000/svg" version="1.1" width="600px" height="600px" xlink="http://www.w3.org/1999/xlink" style="overflow:hidden!important;"><g id="svga-group-wrapper" transform="scale(3 3)"><g id="svga-group-backs-single"><path stroke="none" opacity="1" stroke-width="none" fill="#c5e0dc" d="M225 225H-25V-25h250V225z" id="SvgjsPath4186"></path><path stroke="none" opacity="1" stroke-width="none" fill="#a3d1ca" d="M100 85c-8.284 0-15 6.716-15 15s6.716 15 15 15 15-6.716 15-15S108.284 85 100 85zM100 110c-5.522 0-10-4.478-10-10s4.478-10 10-10 10 4.478 10 10S105.522 110 100 110zM100 70c-16.568 0-30 13.432-30 30s13.432 30 30 30 30-13.432 30-30S116.568 70 100 70zM100 125c-13.807 0-25-11.193-25-25s11.193-25 25-25 25 11.193 25 25S113.807 125 100 125zM100 55c-24.853 0-45 20.147-45 45s20.147 45 45 45 45-20.147 45-45S124.853 55 100 55zM100 140c-22.091 0-40-17.909-40-40s17.909-40 40-40 40 17.909 40 40S122.091 140 100 140zM100 40c-33.137 0-60 26.863-60 60s26.863 60 60 60 60-26.863 60-60S133.137 40 100 40zM100 155c-30.375 0-55-24.625-55-55s24.625-55 55-55 55 24.625 55 55S130.375 155 100 155zM100 25c-41.421 0-75 33.579-75 75s33.579 75 75 75 75-33.579 75-75S141.421 25 100 25zM100 170c-38.658 0-70-31.342-70-70s31.342-70 70-70 70 31.342 70 70S138.658 170 100 170zM100 10c-49.705 0-90 40.295-90 90s40.295 90 90 90 90-40.295 90-90S149.705 10 100 10zM100 184.999c-46.943 0-85-38.057-85-84.999s38.057-85.001 85-85.001S185 53.058 185 100 146.943 184.999 100 184.999zM100-5C42.011-5-5 42.011-5 100s47.011 105 105 105 105-47.011 105-105S157.989-5 100-5zM100 199.998C44.772 199.998 0 155.226 0 100 0 44.773 44.772-0.001 100-0.001S200 44.773 200 100C200 155.226 155.228 199.998 100 199.998zM100-35C25.442-35-35 25.442-35 100s60.442 135 135 135 135-60.442 135-135S174.558-35 100-35zM100 229.998c-71.795 0-130-58.205-130-129.998 0-71.795 58.205-130.002 130-130.002 71.794 0 130 58.207 130 130.002C230 171.793 171.794 229.998 100 229.998zM100-20C33.727-20-20 33.727-20 100s53.727 120 120 120 120-53.727 120-120S166.273-20 100-20zM100 214.998C36.489 214.998-15 163.51-15 100c0-63.511 51.489-115.002 115-115.002S215 36.489 215 100C215 163.51 163.511 214.998 100 214.998z" id="SvgjsPath4187"></path></g><g transform="matrix(0.84999948 0 0 0.84999948 15.00766921390624 16.528182297499995) translate(0 9.999999983634211e-8)" id="svga-group-subwrapper"><g id="svga-group-hair-back"><path opacity="1" stroke-width="none" fill="#2c2219" d="M156.79,87.186c1.245-4.645,2.08-9.934,2.312-14.214h11.529c1.834,3.925,2.658,6.08,3.9,7.933c-1.84-0.72-3.965-1.467-7.809-4.972c0.318,0.854,4.324,12.487,4.587,14.493c-3.391-2.793-4.635-5.812-6.713-8.063c1.206,8.371,1.873,12.796-2.654,23.504C159.181,90.365,157.449,87.622,156.79,87.186zM34.506,74.599c-0.217,8.956-2.898,15.556-12.347,23.446c2.96-0.94,5.61-2.43,10.271-5.06c0.8-2.13,1.51-4.561,1.79-6.8c-0.82,7.9-5.598,13.347-1.274,22.677c0.606-7.783,3.254-13.309,10.093-17.755c-0.216,0.149-0.716,0.513-1.372,1.089c0.747-0.612,1.527-1.188,2.333-1.728c-1.567-4.835-2.861-12.029-2.909-15.869H34.506z M33.478,81.232c-1.485-1.845-2.84-4.664-3.422-6.633h4.441C34.344,75.986,34.038,79.067,33.478,81.232z" id="SvgjsPath4096"></path><path opacity="1" stroke-width="none" fill="#0d0905" d="M173.749,80.275c-1.258-1.878-2.29-4.05-3.289-6.204h1.082c1.02,2.248,2.179,5.013,3.497,7.194c-3.51-1.04-5.28-2.09-7.91-4.72c3.17,7.87,3.66,11.71,5.19,14.94c-4.49-2.72-5.15-6.06-7.49-8.73c1.51,7.79,2.98,13.92-3.43,25.09c0-6.07-1.29-13.851-3.55-19.8c3.289,3.15,3.819,13.52,4.079,17.08c1.011-2.39,1.851-4.84,2.511-7.37c1.75-6.68,0.18-12.78-0.15-15.8c1.913,1.238,4.051,5.872,6.9,8.22c-1.801-4.38-2-6.61-5.399-15.54C168.6,77.325,171.119,79.245,173.749,80.275z M32.749,108.115c-3.38-8.12,0.65-14.03,1.47-21.93c-0.28,2.24-1.09,4.37-1.89,6.5c-4.66,2.63-6.61,4.12-9.57,5.06c9.449-7.89,11.529-13.99,11.747-22.946h-0.108c-0.153,1.387-0.459,3.801-1.019,5.966c-1.485-1.845-2.559-4.216-3.141-6.185l-1.204,0.011c0.695,2.252,2.058,4.925,4.075,7.094c-1.63,6.99-6.84,12.3-12.02,16.88c3.33-0.1,7.88-2.78,10.79-4.66c-2.09,5.7-2.23,10.66,1.77,17.57c-0.246-10.686,5.281-16.878,8.017-19.28c0.656-0.576,1.156-0.94,1.372-1.089C36.199,95.554,33.355,100.333,32.749,108.115z" id="SvgjsPath4097"></path></g><g id="svga-group-humanbody-single"><path stroke="none" opacity="1" stroke-width="none" fill="#f6e4e2" d="M190.858 199.866c-6.008-10.158-13.474-11.973-19.628-13.936 -6.323-2.016-19.346-3.178-26.449-4.6 -6.86-1.373-23.153-5.789-23.339-13.488 -0.192-8.066 4.291-40.09 4.291-40.09H74.005c0 0 4.487 32.023 4.294 40.09 -0.184 7.699-16.48 12.115-23.341 13.488 -7.104 1.422-20.125 2.584-26.448 4.6 -6.156 1.963-13.624 3.777-19.632 13.936 -3.644 6.16-6.008 16.133-6.008 27.133h194C196.869 215.999 194.509 206.026 190.858 199.866z" id="SvgjsPath2761"></path><path stroke="none" opacity="1" stroke-width="none" fill="#ffffff" d="M121.442 167.843c2.495 10.929 18.165 13.698 26.293 15.325 21.909 4.379 33.772 5.134 42.297 19.539 2.903 4.916 5.459 15.864 5.962 24.153 1.835 0.291 0.531-17.432-5.136-26.994 -9.742-16.472-29.089-15.135-46.077-18.535C137.921 179.958 121.628 175.542 121.442 167.843L121.442 167.843zM78.558 167.843c-0.186 7.699-16.479 12.115-23.339 13.488 -16.988 3.4-36.335 2.063-46.077 18.535 -5.667 9.563-6.971 27.285-5.136 26.994 0.503-8.289 3.059-19.237 5.962-24.153 8.524-14.405 20.388-15.16 42.297-19.539C60.393 181.541 76.063 178.771 78.558 167.843L78.558 167.843z" id="SvgjsPath2762"></path><path stroke="none" opacity="1" stroke-width="none" fill="#e7c1bd" d="M51.206 189.513c0 0 28.641 0.299 33.473 1.885 2.314 0.758 8.372 5.633 8.372 5.633s-6.556-3.17-8.658-3.758C79.51 191.909 51.206 189.513 51.206 189.513zM99.795 199.999c2.053-0.041 7.887-3.799 7.887-3.799s-5.574 2.059-7.342 2.16c-1.491 0.086-6.366-1.238-6.366-1.238S98.112 200.032 99.795 199.999zM117.008 192.757c6.75-1.818 29.786-3.23 29.786-3.23s-23.791-0.516-30.51 1.725c-2.252 0.752-7.562 5.16-7.562 5.16S114.786 193.354 117.008 192.757z" id="SvgjsPath2763"></path><path opacity="1" stroke-width="1.5" stroke="#c8837c" fill="none" d="M190.858 199.866c-9.741-16.471-29.122-15.142-46.077-18.535 -6.86-1.373-23.153-5.789-23.339-13.488 -0.192-8.066 4.291-40.09 4.291-40.09H74.005c0 0 4.487 32.023 4.294 40.09 -0.184 7.699-16.48 12.115-23.341 13.488 -7.104 1.422-20.125 2.584-26.448 4.6 -6.156 1.963-13.624 3.777-19.632 13.936 -3.644 6.16-6.008 16.133-6.008 27.133h194C196.869 215.999 194.509 206.026 190.858 199.866z" id="SvgjsPath2764"></path></g><g id="svga-group-chinshadow-single"><path opacity="1" fill="url(#SvgjsLinearGradient4379)" d="M100.021 171.27c5.607-0.009 13.53-3.627 20.967-8.478 0.485-6.84 1.756-17.341 2.758-25.098 -13.972-1.825-33.828-1.785-47.741 0.101 0.995 7.702 2.249 18.065 2.739 24.877C86.278 167.593 94.344 171.279 100.021 171.27z" id="SvgjsPath4378"></path></g><g id="svga-group-clothes-single"><path opacity="1" stroke-width="none" fill="#1d282e" d="M176.662 239.205c-4.731-0.031-142.126-1.232-153.208-1.823 1.595-10.032 4.924-15.048 10.136-20.336 0.397-10.141-3-24.685-4.583-31.951 1.592-4.057 4.741 0.357 20.731-4.584 4.066-1.013 8.65-7.315 14.947-2.354 -2.199 0.903-4.148 1.319-5.923 1.756 -2.657 14.611 31.716 40.78 40.839 45.67 11.181-5.065 44.953-33.159 41.373-45.645 -0.346-0.158-4.268-1.11-5.551-1.71 2.176-1.919 5.892-2.672 9.589-0.353 4.431 2.771 12.578 5.406 22.848 5.406 1.323 0 2.337 0.34 2.986 1.999 -1.114 5.095-4.727 22.604-4.667 31.635C174.006 224.707 175.121 229.664 176.662 239.205z" id="SvgjsPath4167"></path><path opacity="1" stroke-width="none" fill="#101a1f" d="M150.077 185.14c-3.109 8.592-5.631 11.417-7.907 14.465 -2.618 3.506-3.455 5.129-2.205 2.785C144.613 193.068 145.855 193.511 150.077 185.14zM147.508 213.521c-0.232 1.071-0.375 1.72-0.344 1.593 2.81-9.574 9.184-26.459 9.184-26.459C154.178 195.795 151.241 196.15 147.508 213.521zM55.885 200c14.044 17.188-2.303-2.73-7.432-12.774C50.601 192.177 52.189 195.138 55.885 200zM54.307 216.992c-0.395-1-6.421-22.676-11.549-26.604C45.151 192.344 54.679 217.992 54.307 216.992z" id="SvgjsPath4168"></path><path opacity="1" stroke-width="none" fill="#2d373d" d="M170.847 185.281c-0.14 0.637-0.436 1.843-0.642 2.827 -2.355-0.396-5.961-1.215-5.961-0.373 -0.866 9.101-1.283 8.2-2.025 16.167 0.073-10.926 2.019-11.629-0.219-16.902 -6.053-1.017-11.768-2.581-17.019-4.186 -2.151 8.861-12.232 20.261-8.525 15.445 3.343-4.392 6.313-10.895 7.528-15.751 -0.939-0.29-1.867-0.581-2.774-0.869 -0.021-0.591-0.082-1.165-0.235-1.701 -0.346-0.158-4.268-1.11-5.551-1.71 2.176-1.919 5.892-2.672 9.589-0.353 4.431 2.771 12.578 5.406 22.848 5.406C169.184 183.282 170.197 183.622 170.847 185.281zM29.153 185.281c0.14 0.637 0.436 1.843 0.642 2.827 2.355-0.396 5.895-0.783 5.895-0.783 -0.26 5.06 1.35 7.61 2.092 15.577C37.708 191.977 36.014 192.189 37 187c6.053-1.017 12.768-2.581 18.019-4.186 2.151 8.861 13.232 22.001 9.525 17.186 -3.343-4.392-7.313-12.635-8.528-17.491 0.939-0.29 1.867-0.581 2.774-0.869 0.021-0.591 0.082-1.165 0.235-1.701 0.346-0.158 4.268-1.11 5.551-1.71 -2.176-1.919-5.892-2.672-9.589-0.353 -4.431 2.771-12.578 5.406-22.848 5.406C30.816 183.282 29.803 183.622 29.153 185.281z" id="SvgjsPath4169"></path><path opacity="1" stroke-width="none" fill="#070c0f" d="M58.769 179.936c0-0.801 0.47-1.651 1.339-1.651 0.476 0 1.025 0.247 1.633 0.733l0.146 0.117 -0.178 0.057c-0.73 0.23-1.982 0.597-2.722 0.813l-0.128 0.038L58.769 179.936zM140.869 179.995c-0.016 0-0.016 0-1.14-0.35l-1.301-0.402 0.162-0.119c0.529-0.385 0.955-0.572 1.3-0.572 0.533 0 0.885 0.433 1.076 1.323l0.026 0.12H140.869z" id="SvgjsPath4170"></path><path opacity="1" stroke-width="none" fill="#000000" d="M166.279 216.915c-0.055-8.281 2.988-23.902 4.66-31.67 -1.18-3.017-3.58-1.753-6.03-2.02 -15.956-1.477-19.064-5.281-21.12-6.16 -2.655-1.258-6.253-0.91-8.479 1.13 -0.021 0.01-0.04 0.03-0.061 0.06 1.22 0.625 4.63 1.429 5.63 1.711 3.549 12.378-29.553 40.193-41.23 45.529 -9.231-4.947-43.363-30.894-40.8-45.5 0.113-0.027 2.995-0.729 3.1-0.779 0.039 0 2.487-0.819 2.92-1.03 -0.02-0.01-0.04-0.03-0.05-0.05 -6.392-5.112-11.061 1.27-15.11 2.279 -16.079 4.97-19.171 0.454-20.8 4.7 0.213 1 5.017 20.344 4.61 31.86 -5.072 5.146-8.551 10.14-10.16 20.399 -0.01 0.04-0.02 0.07-0.02 0.101 10.231 0.588 152.439 1.83 153.44 1.83C175.204 229.537 174.033 224.594 166.279 216.915zM138.649 179.205c1.198-0.872 1.907-0.766 2.22 0.69C140.868 179.896 138.65 179.205 138.649 179.205zM58.869 179.936c0-1 0.825-2.429 2.81-0.84C60.919 179.336 59.593 179.724 58.869 179.936zM23.899 237.365c3.735-15.164 12.067-23.607 14.47-23.68 -1.422 0-3.53 1.973-4.53 2.96 0.941-11.17-2.007-22.558-4.63-31.54 1.216-2.388 3.067-1.38 5.53-1.38 22.481 0 21.745-12.367 29.94-5.54 -0.409 0.163-2.524 0.757-2.9 0.88 -3.441-3.277-3.946 2.577-2.91 7.54 5.004 16.15 35.575 39.59 40.71 39.59 15.945-6.354 44.861-31.908 41.59-46.16 0.01-0.02 0-0.04-0.01-0.06 -0.188-1.347-1.059-2.112-2.62-0.811 -0.904-0.285-1.897-0.549-3.09-0.92 5.239-4.381 10.854 1.216 12.77 2.19 4.607 2.536 12.876 3.43 16.681 3.43 2.626 0.086 4.562-1.097 5.739 1.351 -2.909 9.728-5.29 21.217-4.67 31.39 -1.057-1.004-2.635-2.41-4.05-2.76 6.852 2.486 13.144 17.17 14.4 25.26C108.784 236.728 100.525 237.005 23.899 237.365z" id="SvgjsPath4171"></path></g><g id="svga-group-head"><g id="svga-group-ears-left"><path opacity="1" stroke-width="1.5" stroke="#c8837c" fill="#f6e4e2" d="M47.001 83.974c-1.376-2.313-5.638-7.997-9.98-6.603 -2.749 0.882-3.293 3.765-3.735 6.311 -0.588 3.386 0.471 10.083 1.389 12.503 0.881 2.325 3.533 6.816 5.264 8.527 2.13 2.1 4.775 8.793 5.194 9.487 0.66 1.097 1.536 2.745 4.122 2.538 2.853-0.229 4.584-1.742 5.856-1.999C58.253 114.109 50.582 89.995 47.001 83.974z" id="SvgjsPath4364"></path><path opacity="1" stroke-width="none" fill="#c8837c" d="M44.197 97.997c-0.132-0.548 0.007-1.47 0.142-2.362 0.124-0.812 0.24-1.579 0.169-2.121 -0.267-2.032-1.773-5.893-2.757-7.985 -1.132-2.407-2.963-5.439-5.262-6.221 -0.95-0.324-1.575 0.063-1.938 0.456 -0.266 0.289-0.325 0.627-0.238 0.667 0.086 0.04 0.285-0.24 0.572-0.504 0.235-0.216 0.579-0.402 1.051-0.363 -0.19 1.011-1.167 6.49-0.744 10.225 0.333 2.938 1.593 5.131 1.79 5.46 0.029 0.346 0.077 0.685 0.148 1.014 0.929 4.287 4.971 9.163 6.378 10.758 0.259 0.295 0.531 0.47 0.598 0.398 0.066-0.072-0.094-0.364-0.353-0.66 -1.388-1.585-5.391-6.442-6.289-10.579 -0.952-4.389 2.318-10.896 3.048-12.272 0.371 0.646 0.687 1.267 0.93 1.785 0.19 0.406 0.402 0.881 0.619 1.395 -0.429 0.718-3.434 5.958-2.338 10.153 0.406 1.546 2.235 3.54 3.447 4.086 0.667 0.301 0.919 0.75 1.209 1.271 0.336 0.604 0.718 1.288 1.828 1.784 0.225 0.102 0.429 0.142 0.61 0.142 0.313 0 0.551-0.126 0.725-0.276 0.018 0.266 0.017 0.604 0.009 0.917 -0.012 0.404 0.042 0.737 0.137 0.745 0.094 0.008 0.196-0.313 0.207-0.717 0.016-0.496 0.013-1.11-0.072-1.403 -0.248-0.865-1.008-1.841-1.813-2.875C45.221 99.896 44.403 98.844 44.197 97.997zM36.95 94.196c-2.177-6.731 0.656-12.54 1.144-13.464 0.85 0.775 1.6 1.811 2.21 2.824C39.86 84.365 37.041 89.669 36.95 94.196zM46.341 104.042c-1.004-0.447-1.339-1.051-1.666-1.633 -0.293-0.527-0.598-1.072-1.369-1.42 -0.168-0.075-0.352-0.191-0.542-0.323 -2.486-5.906 0.272-8.488 0.963-9.017 0.211 0.722 0.369 1.384 0.439 1.915 0.063 0.488-0.052 1.263-0.167 2.012 -0.142 0.929-0.286 1.89-0.137 2.512 0.226 0.926 1.069 2.009 1.884 3.057 0.723 0.929 1.466 1.888 1.721 2.67C47.359 103.972 47.017 104.345 46.341 104.042z" id="SvgjsPath4365"></path></g><g id="svga-group-ears-right"><path opacity="1" stroke-width="1.5" stroke="#c8837c" fill="#f6e4e2" d="M152.736 83.974c1.377-2.313 5.639-7.997 9.98-6.603 2.75 0.882 3.293 3.765 3.736 6.311 0.588 3.386-0.471 10.083-1.389 12.503 -0.881 2.325-3.533 6.816-5.266 8.527 -2.129 2.1-4.775 8.793-5.193 9.487 -0.658 1.097-1.535 2.745-4.121 2.538 -2.854-0.229-4.584-1.742-5.857-1.999C141.484 114.109 149.156 89.995 152.736 83.974z" id="SvgjsPath4366"></path><path opacity="1" stroke-width="none" fill="#c8837c" d="M153.727 100.913c-0.805 1.033-1.564 2.009-1.813 2.875 -0.086 0.293-0.088 0.907-0.072 1.403 0.012 0.404 0.113 0.725 0.207 0.717s0.148-0.341 0.137-0.745c-0.008-0.313-0.008-0.651 0.01-0.917 0.174 0.15 0.412 0.276 0.725 0.276 0.182 0 0.385-0.04 0.609-0.142 1.109-0.496 1.492-1.18 1.828-1.784 0.289-0.52 0.543-0.969 1.209-1.271 1.213-0.546 3.041-2.54 3.447-4.086 1.096-4.194-1.908-9.435-2.338-10.153 0.217-0.513 0.43-0.988 0.619-1.395 0.244-0.518 0.559-1.139 0.93-1.785 0.73 1.377 4 7.883 3.049 12.272 -0.896 4.137-4.9 8.994-6.289 10.579 -0.258 0.296-0.418 0.588-0.352 0.66 0.066 0.071 0.338-0.104 0.598-0.398 1.406-1.596 5.449-6.471 6.379-10.758 0.07-0.329 0.117-0.668 0.146-1.014 0.197-0.329 1.459-2.523 1.791-5.46 0.422-3.735-0.555-9.214-0.744-10.225 0.473-0.039 0.814 0.146 1.051 0.363 0.287 0.264 0.486 0.544 0.572 0.504s0.027-0.378-0.238-0.667c-0.363-0.393-0.988-0.779-1.938-0.456 -2.299 0.782-4.131 3.814-5.262 6.221 -0.984 2.093-2.49 5.953-2.758 7.985 -0.072 0.542 0.045 1.309 0.17 2.121 0.135 0.892 0.273 1.814 0.141 2.362C155.336 98.844 154.518 99.896 153.727 100.913zM159.434 83.555c0.611-1.013 1.361-2.049 2.211-2.824 0.488 0.925 3.32 6.733 1.145 13.464C162.697 89.669 159.879 84.365 159.434 83.555zM152.27 103.816c0.254-0.782 0.998-1.741 1.721-2.67 0.816-1.048 1.658-2.131 1.885-3.057 0.148-0.622 0.004-1.583-0.137-2.512 -0.115-0.749-0.23-1.524-0.166-2.012 0.068-0.531 0.227-1.193 0.438-1.915 0.691 0.529 3.449 3.111 0.965 9.017 -0.191 0.132-0.375 0.248-0.543 0.323 -0.771 0.348-1.074 0.893-1.369 1.42 -0.326 0.582-0.662 1.186-1.666 1.633C152.721 104.345 152.379 103.972 152.27 103.816z" id="SvgjsPath4367"></path></g><g id="svga-group-faceshape-wrap"><g id="svga-group-faceshape-single"><path opacity="1" stroke-width="none" fill="#f6e4e2" d="M158.785 76.762l-0.005 0c-0.012 0.053-10.717 44.373-18.919 56.95 -6.452 9.895-28.166 25.54-39.84 25.558 -11.671 0.02-33.437-15.559-39.918-25.433C51.861 121.285 41.017 77 41.005 76.946h-0.001c-1.298-4.911-1.994-10.066-2.002-15.382C38.949 28.09 66.155 0.919 99.773 0.867c33.621-0.052 60.913 27.033 60.964 60.507C160.746 66.69 160.068 71.846 158.785 76.762z" id="SvgjsPath4375"></path><path opacity="1" stroke-width="none" fill="#eed2cf" d="M125.766 6.622c19.104 10.248 32.075 30.355 32.039 53.476 -0.009 5.316-0.704 10.471-2.003 15.382h-0.001c-0.012 0.053-10.856 44.339-19.099 56.891 -5.946 9.061-24.555 25.121-36.833 25.121 -12.279 0-30.886-16.061-36.833-25.121 -8.242-12.552-19.086-56.837-19.098-56.891h-0.001c-1.298-4.911-1.994-10.066-2.002-15.382C41.898 36.977 54.87 16.87 73.972 6.622 53.277 16.324 38.963 37.28 39.001 61.564c0.008 5.316 0.704 10.471 2.002 15.382h0.001c0.012 0.053 10.856 44.339 19.098 56.891 4.416 6.728 15.922 16.095 26.5 21.382 -0.529-0.226-1.062-0.466-1.599-0.717 5.408 2.875 10.664 4.763 14.713 4.768 0.049 0 0.103-0.005 0.152-0.005s0.103 0.005 0.152 0.005c4.049-0.005 9.305-1.893 14.714-4.768 -0.538 0.253-1.071 0.491-1.601 0.718 10.577-5.287 22.085-14.655 26.501-21.383 8.242-12.552 19.087-56.837 19.098-56.891h0.002c1.298-4.911 1.994-10.066 2.002-15.382C160.775 37.28 146.462 16.324 125.766 6.622z" id="SvgjsPath4376"></path><path opacity="1" stroke-width="1.5" stroke="#c8837c" fill="none" d="M158.785 76.762l-0.005 0c-0.012 0.053-10.717 44.373-18.919 56.95 -6.452 9.895-28.166 25.54-39.84 25.558 -11.671 0.02-33.437-15.559-39.918-25.433C51.861 121.285 41.017 77 41.005 76.946h-0.001c-1.298-4.911-1.994-10.066-2.002-15.382C38.949 28.09 66.155 0.919 99.773 0.867c33.621-0.052 60.913 27.033 60.964 60.507C160.746 66.69 160.068 71.846 158.785 76.762z" id="SvgjsPath4377"></path></g></g><g id="svga-group-mouth-single"><path opacity="1" fill="url(#SvgjsLinearGradient3101)" d="M100.457 141.651c-3.24 0-3.697-2.678-3.697-2.678l7.125-0.188C103.884 138.785 103.307 141.651 100.457 141.651z" id="SvgjsPath3100"></path><path opacity="1" stroke-width="none" fill="#c8837c" d="M99.886 139.415c-1.668 0-2.938-0.171-3.027-0.184 -0.137-0.02-0.232-0.146-0.213-0.282 0.019-0.138 0.147-0.227 0.282-0.214 0.037 0.006 3.7 0.5 6.766-0.195 0.146-0.03 0.27 0.057 0.3 0.189 0.03 0.135-0.055 0.269-0.188 0.299C102.485 139.327 101.082 139.415 99.886 139.415zM100.071 134.142c-1.291 0-2.542-0.477-3.8-0.71 -1.408-0.262-2.812-0.038-4.221 0.096 -1.202 0.114-2.384 0.097-3.574-0.118 -0.566-0.103-1.409-0.165-1.893-0.491 -0.496-0.335-0.404-1.114 0.155-1.324 0.528-0.2 1.35 0.216 1.882 0.317 0.608 0.116 1.225 0.189 1.845 0.198 1.366 0.018 2.719-0.258 4.083-0.306 1.445-0.048 2.835 0.352 4.231 0.658 1.247 0.273 2.325 0.09 3.553-0.174 2.13-0.459 4.259-0.573 6.429-0.67 1.073-0.049 2.167-0.256 3.19-0.583 0.436-0.141 0.953-0.512 1.411-0.261 0.528 0.29 0.503 1.082-0.042 1.337 -1.781 0.837-3.78 0.972-5.715 1.061 -1.235 0.056-2.475 0.117-3.694 0.334C102.64 133.731 101.371 134.142 100.071 134.142z" id="SvgjsPath3104"></path></g><g id="svga-group-eyes-left"><g id="svga-group-eyesback-left"><path opacity="1" fill="url(#SvgjsRadialGradient4311)" d="M61.952 84.523c-0.506-2.285 5.191-3.973 12.711-3.051 7.518 0.923 12.738 5.524 12.052 7.844 -0.38 1.286-10.639 3.245-14.253 2.847C68.798 91.758 63.174 90.04 61.952 84.523z" id="SvgjsPath4310"></path></g><g transform="translate(-0.75 -0.5)" id="svga-group-eyesiriswrapper-left"><g id="svga-group-eyesiriscontrol-left"><g transform="matrix(0.79999927 0 0 0.79999927 15.000054749999997 17.400063509999995)" id="svga-group-eyesiris-left"><path opacity="1" stroke-width="none" fill="#4d3623" d="M83.5 87c0 4.694-3.806 8.5-8.499 8.5 -4.694 0-8.501-3.806-8.501-8.5l0 0c0-4.694 3.807-8.5 8.501-8.5C79.694 78.499 83.5 82.305 83.5 87L83.5 87z" id="SvgjsPath3989"></path><path opacity="1" fill="url(#SvgjsRadialGradient3991)" d="M74.048 78.595c-0.033 0.004-0.066 0.008-0.101 0.012 0.041 0.191 0.081 0.384 0.12 0.575C74.06 78.987 74.055 78.789 74.048 78.595zM74.066 79.18c0.099 2.793 0.262 5.282 0.732 6.183C75.047 84.377 74.625 81.92 74.066 79.18zM74.8 85.365c-0.061 0.236-0.153 0.397-0.294 0.452 -0.142 0.053-0.319-0.008-0.521-0.146 0.058 0.236 0.052 0.422-0.051 0.537 -0.102 0.114-0.285 0.142-0.527 0.11 0.16 0.184 0.242 0.353 0.206 0.5 -0.039 0.148-0.189 0.258-0.415 0.343 0.225 0.088 0.376 0.199 0.411 0.347 0.036 0.148-0.046 0.315-0.205 0.498 0.241-0.029 0.426 0.001 0.525 0.115 0.101 0.114 0.106 0.301 0.05 0.537 0.199-0.137 0.376-0.197 0.518-0.142 0.143 0.053 0.234 0.216 0.291 0.454 0.114-0.215 0.243-0.353 0.396-0.368 0.148-0.02 0.307 0.084 0.466 0.267 0.002-0.244 0.053-0.423 0.181-0.51 0.124-0.086 0.311-0.069 0.537 0.018 -0.11-0.216-0.148-0.398-0.078-0.534 0.071-0.135 0.245-0.207 0.487-0.235 -0.199-0.14-0.321-0.283-0.318-0.436 -0.001-0.153 0.119-0.296 0.321-0.434 -0.241-0.03-0.412-0.103-0.484-0.237 -0.07-0.135-0.031-0.319 0.081-0.535 -0.229 0.085-0.413 0.102-0.538 0.016 -0.126-0.086-0.177-0.267-0.178-0.51 -0.158 0.182-0.316 0.282-0.468 0.262C75.041 85.714 74.911 85.58 74.8 85.365zM75.66 85.471c0.679-0.758 1.446-3.13 2.224-5.813C76.674 82.174 75.662 84.453 75.66 85.471zM77.883 79.657c0.085-0.172 0.172-0.348 0.253-0.524 -0.03-0.011-0.06-0.024-0.09-0.037C77.992 79.284 77.938 79.472 77.883 79.657zM76.377 85.965c0.953-0.357 2.736-2.101 4.671-4.115C78.808 83.517 76.851 85.065 76.377 85.965zM81.048 81.851c0.142-0.106 0.287-0.213 0.433-0.318 -0.021-0.025-0.043-0.047-0.06-0.07C81.297 81.59 81.174 81.722 81.048 81.851zM76.777 86.738c1.01 0.125 3.399-0.591 6.052-1.475C80.068 85.698 77.617 86.159 76.777 86.738zM82.829 85.263c0.156-0.022 0.318-0.048 0.478-0.073 -0.007-0.026-0.013-0.054-0.02-0.081C83.135 85.16 82.979 85.212 82.829 85.263zM76.775 87.606c0.836 0.583 3.284 1.057 6.038 1.505C80.171 88.214 77.786 87.484 76.775 87.606zM82.813 89.111c0.135 0.047 0.271 0.095 0.404 0.138 0.007-0.024 0.013-0.047 0.018-0.071C83.098 89.158 82.954 89.135 82.813 89.111zM76.367 88.375c0.471 0.902 2.42 2.462 4.649 4.142C79.092 90.492 77.32 88.737 76.367 88.375zM81.018 92.514c0.083 0.087 0.17 0.179 0.253 0.268 0.014-0.017 0.027-0.031 0.043-0.046C81.215 92.662 81.113 92.587 81.018 92.514zM75.652 88.867c-0.004 1.019 0.995 3.302 2.191 5.827C77.079 92.006 76.327 89.628 75.652 88.867zM77.844 94.694c0.03 0.106 0.062 0.215 0.09 0.324 0.021-0.008 0.036-0.015 0.055-0.02C77.941 94.896 77.892 94.793 77.844 94.694zM74.788 88.968c-0.476 0.902-0.653 3.386-0.768 6.178C74.594 92.413 75.031 89.958 74.788 88.968zM74.021 95.146c-0.023 0.106-0.044 0.214-0.066 0.323 0.02 0.004 0.035 0.005 0.055 0.007C74.013 95.368 74.018 95.254 74.021 95.146zM73.979 88.657c-0.844 0.576-2.154 2.697-3.553 5.114C72.204 91.617 73.733 89.645 73.979 88.657zM70.427 93.771c-0.074 0.09-0.152 0.185-0.229 0.274 0.018 0.012 0.034 0.02 0.053 0.034C70.309 93.976 70.369 93.873 70.427 93.771zM73.405 88.006c-1.015 0.119-3.16 1.385-5.522 2.875C70.46 89.801 72.726 88.768 73.405 88.006zM67.883 90.884c-0.122 0.051-0.247 0.102-0.372 0.156 0.009 0.019 0.021 0.038 0.033 0.057C67.658 91.027 67.771 90.954 67.883 90.884zM73.198 87.161c-0.951-0.365-3.441-0.238-6.227-0.016C69.755 87.383 72.244 87.521 73.198 87.161zM66.972 87.145c-0.151-0.014-0.308-0.028-0.457-0.041 -0.001 0.027-0.003 0.053-0.001 0.08C66.669 87.169 66.822 87.156 66.972 87.145zM73.407 86.318c-0.67-0.763-2.932-1.809-5.499-2.905C70.259 84.915 72.397 86.196 73.407 86.318zM67.908 83.413c-0.147-0.095-0.297-0.189-0.446-0.285 -0.013 0.026-0.026 0.053-0.041 0.078C67.585 83.276 67.75 83.344 67.908 83.413zM73.985 85.67c-0.239-0.989-1.758-2.967-3.521-5.132C71.849 82.963 73.147 85.09 73.985 85.67zM70.465 80.538c-0.095-0.163-0.188-0.329-0.281-0.494 -0.026 0.018-0.055 0.037-0.079 0.054C70.224 80.245 70.348 80.393 70.465 80.538z" id="SvgjsPath3990"></path><path opacity="1" fill="url(#SvgjsRadialGradient3995)" d="M76.255 78.622c-0.034-0.004-0.066-0.01-0.1-0.014 -0.011 0.196-0.022 0.393-0.034 0.586C76.164 79.004 76.211 78.812 76.255 78.622zM76.12 79.193c-0.627 2.724-1.114 5.17-0.892 6.162C75.724 84.467 75.95 81.984 76.12 79.193zM75.229 85.356c-0.119 0.212-0.25 0.344-0.401 0.36 -0.15 0.014-0.306-0.091-0.464-0.276 -0.006 0.243-0.06 0.421-0.188 0.505 -0.128 0.083-0.313 0.063-0.539-0.03 0.107 0.219 0.143 0.403 0.069 0.536 -0.075 0.133-0.249 0.201-0.489 0.224 0.194 0.144 0.312 0.289 0.308 0.441 -0.003 0.152-0.126 0.292-0.327 0.428 0.24 0.034 0.41 0.111 0.478 0.247 0.067 0.136 0.025 0.318-0.091 0.532 0.229-0.081 0.414-0.093 0.537-0.003 0.123 0.088 0.17 0.27 0.164 0.514 0.166-0.177 0.325-0.278 0.478-0.253 0.148 0.02 0.274 0.16 0.382 0.379 0.064-0.236 0.16-0.396 0.306-0.447 0.143-0.051 0.318 0.014 0.515 0.157 -0.051-0.237-0.041-0.423 0.063-0.536s0.29-0.136 0.532-0.102c-0.157-0.187-0.238-0.356-0.195-0.504 0.039-0.148 0.192-0.255 0.423-0.336 -0.226-0.091-0.372-0.206-0.407-0.354 -0.032-0.149 0.053-0.316 0.218-0.495 -0.243 0.023-0.427-0.009-0.524-0.125 -0.099-0.115-0.102-0.303-0.039-0.538 -0.201 0.134-0.38 0.19-0.521 0.132C75.37 85.756 75.281 85.593 75.229 85.356zM76.033 85.683c0.852-0.558 2.206-2.65 3.652-5.04C77.865 82.76 76.298 84.699 76.033 85.683zM79.685 80.641c0.126-0.145 0.255-0.292 0.38-0.44 -0.027-0.019-0.052-0.04-0.078-0.06C79.886 80.31 79.785 80.477 79.685 80.641zM76.597 86.345c1.013-0.099 3.187-1.322 5.577-2.767C79.578 84.609 77.287 85.598 76.597 86.345zM82.173 83.579c0.165-0.065 0.333-0.131 0.501-0.195 -0.014-0.029-0.029-0.056-0.04-0.083C82.481 83.392 82.328 83.487 82.173 83.579zM76.783 87.194c0.943 0.382 3.437 0.309 6.227 0.142C80.231 87.042 77.745 86.853 76.783 87.194zM83.01 87.336c0.158 0.019 0.32 0.036 0.48 0.053 0.001-0.027 0.002-0.055 0.003-0.083C83.332 87.316 83.168 87.326 83.01 87.336zM76.558 88.033c0.655 0.78 2.898 1.871 5.442 3.017C79.679 89.499 77.565 88.177 76.558 88.033zM82 91.049c0.117 0.08 0.236 0.161 0.354 0.238 0.013-0.021 0.024-0.042 0.035-0.063C82.262 91.168 82.129 91.109 82 91.049zM75.964 88.67c0.221 0.993 1.699 3.004 3.419 5.205C78.048 91.419 76.791 89.266 75.964 88.67zM79.384 93.872c0.059 0.106 0.117 0.217 0.176 0.325 0.018-0.013 0.034-0.023 0.053-0.034C79.536 94.065 79.458 93.967 79.384 93.872zM75.146 88.96c-0.267 0.982 0.107 3.447 0.608 6.195C75.711 92.361 75.601 89.87 75.146 88.96zM75.754 95.155c0.002 0.11 0.004 0.224 0.004 0.337 0.021-0.003 0.038-0.005 0.058-0.005C75.796 95.376 75.775 95.264 75.754 95.155zM74.285 88.834c-0.693 0.748-1.508 3.102-2.341 5.769C73.205 92.11 74.265 89.853 74.285 88.834zM71.944 94.603c-0.05 0.096-0.099 0.195-0.147 0.295 0.017 0.008 0.032 0.013 0.051 0.021C71.879 94.815 71.913 94.707 71.944 94.603zM73.584 88.324c-0.964 0.338-2.779 2.048-4.756 4.021C71.104 90.724 73.091 89.215 73.584 88.324zM68.828 92.345c-0.095 0.067-0.194 0.138-0.29 0.206 0.014 0.016 0.027 0.028 0.041 0.045C68.661 92.511 68.746 92.428 68.828 92.345zM73.197 87.546c-1.01-0.148-3.409 0.521-6.078 1.349C69.889 88.518 72.345 88.106 73.197 87.546zM67.119 88.897c-0.131 0.018-0.265 0.034-0.4 0.054 0.005 0.021 0.011 0.042 0.018 0.063C66.865 88.977 66.993 88.936 67.119 88.897zM73.217 86.677c-0.824-0.599-3.263-1.121-6.01-1.627C69.833 86 72.202 86.777 73.217 86.677zM67.207 85.05c-0.143-0.052-0.29-0.106-0.432-0.158 -0.008 0.026-0.016 0.051-0.021 0.077C66.907 84.995 67.06 85.022 67.207 85.05zM73.637 85.917c-0.45-0.911-2.363-2.506-4.561-4.23C70.959 83.747 72.693 85.538 73.637 85.917zM69.076 81.688c-0.118-0.13-0.236-0.26-0.355-0.391 -0.021 0.022-0.041 0.044-0.061 0.065C68.8 81.471 68.941 81.58 69.076 81.688zM74.363 85.44c0.024-1.017-0.93-3.321-2.073-5.868C72.999 82.273 73.704 84.663 74.363 85.44zM72.29 79.572c-0.049-0.182-0.096-0.366-0.144-0.55 -0.029 0.01-0.062 0.021-0.09 0.032C72.134 79.227 72.214 79.401 72.29 79.572z" id="SvgjsPath3994"></path><path opacity="1" stroke-width="none" fill="#4d3623" d="M78.334 87c0 1.842-1.492 3.333-3.333 3.333S71.666 88.841 71.666 87c0-1.841 1.494-3.334 3.335-3.334C76.844 83.666 78.334 85.159 78.334 87z" id="SvgjsPath3998"></path><path opacity="0.9" stroke-width="none" fill="#000000" d="M78.334 87c0 1.842-1.492 3.333-3.333 3.333S71.666 88.841 71.666 87c0-1.841 1.494-3.334 3.335-3.334C76.844 83.666 78.334 85.159 78.334 87z" id="SvgjsPath3999"></path><path opacity="0.5" fill="url(#SvgjsLinearGradient4001)" d="M70.35 90.893c0.636-0.427 1.5-0.255 1.927 0.38 0.427 0.637 0.258 1.5-0.379 1.927 -0.638 0.429-1.5 0.258-1.927-0.378C69.544 92.185 69.713 91.32 70.35 90.893L70.35 90.893z" id="SvgjsPath4000"></path><path opacity="0.5" fill="url(#SvgjsLinearGradient4005)" d="M77.635 86.536c-0.356 0.53-1.373 0.468-2.275-0.136 -0.903-0.605-1.346-1.526-0.991-2.055l0.001-0.001c0.354-0.53 1.372-0.469 2.274 0.137 0.903 0.604 1.346 1.524 0.992 2.054C77.635 86.536 77.635 86.536 77.635 86.536z" id="SvgjsPath4004"></path><path opacity="0.75" fill="url(#SvgjsLinearGradient4009)" d="M81.682 85.121c-0.806 1.237-2.884 1.31-4.641 0.166 -1.756-1.145-2.527-3.075-1.722-4.311 0.806-1.235 2.884-1.31 4.641-0.166C81.715 81.956 82.485 83.887 81.682 85.121L81.682 85.121z" id="SvgjsPath4008"></path></g></g></g><g id="svga-group-eyesfront-left"><path opacity="1" stroke-width="none" fill="#f6e4e2" d="M55.5 88c0 13.807 8.06 24.999 18 24.999s18-11.192 18-24.999c0-13.808-8.06-25-18-25S55.5 74.192 55.5 88zM61.952 84.523c-0.506-2.285 5.191-3.973 12.711-3.051 7.518 0.923 12.738 5.524 12.052 7.844 -0.38 1.286-10.639 3.245-14.253 2.847C68.798 91.758 63.174 90.04 61.952 84.523z" id="SvgjsPath4332"></path><path opacity="1" fill="url(#SvgjsRadialGradient4334)" d="M72.462 92.163c3.614 0.398 13.873-1.561 14.253-2.847 0.687-2.32-4.534-6.921-12.052-7.844 -6.46-0.792-11.563 0.345-12.556 2.128 0.898-6.4 7.7-11.397 15.987-11.434 8.911-0.037 16.148 5.676 16.172 12.765 0.021 7.088-7.185 12.862-16.095 12.902 -8.913 0.037-16.149-5.676-16.173-12.764 0-0.105 0.016-0.208 0.019-0.313C63.348 90.083 68.852 91.764 72.462 92.163z" id="SvgjsPath4333"></path><path opacity="1" fill="url(#SvgjsRadialGradient4339)" d="M61.952 84.523c-0.506-2.285 5.191-3.973 12.711-3.051 7.518 0.923 12.738 5.524 12.052 7.844 -0.38 1.286-10.639 3.245-14.253 2.847C68.798 91.758 63.174 90.04 61.952 84.523z" id="SvgjsPath4338"></path><path opacity="1" stroke-width="none" fill="#c8837c" d="M62.349 79.417c4.208-1.978 9.35-2.16 13.838-1.005 2.404 0.561 4.965 1.285 7.063 2.638 1.945 1.135 3.525 2.5 5.002 4.19 -1.342-1.701-2.773-3.118-4.623-4.27 -2.276-1.416-4.769-2.294-7.364-2.916C71.678 76.928 66.542 77.184 62.349 79.417z" id="SvgjsPath4342"></path><path opacity="1" stroke-width="none" fill="#000000" d="M57.318 80.972c0 0 2.328 0.881 3.595 0.62 -0.39-0.459-1.096-1.604-1.096-1.604s1.853 0.551 3.151 0.032c0.88-0.352 4.065-1 5.456-1.066 1.687-0.082 5.073 0.125 6.735 0.424 3.374 0.608 8.985 2.63 11.678 7.184 0.255 0.572 1.407 0.921 1.407 0.921s-1.02-0.215-1.149 0.042c-0.282 0.561 1.298 2.016 1.496 2.197 -0.161-0.145-1.289-1.135-1.722-0.967 -0.061 0.022-0.137 0.388-0.155 0.482 0.3-2.426-4.838-6.746-12.052-7.604 -7.52-0.894-13.217 0.743-12.711 2.958 1.222 5.348 6.846 7.013 10.51 7.405 2.526 0.271 8.298-0.577 11.675-1.537l1.011-0.317c-1.999 1.009-7.524 2.195-9.767 2.403 -0.744 0.07-2.24 0.104-2.986 0.085 -5.949-0.158-10.16-3.179-11.729-7.26 -0.125-0.328-0.494-0.619-0.838-0.696 -1.604-0.361-5.096-1.811-5.096-1.811 2.32 0.361 3.483 0.674 5.305 0.059C58.257 82.256 57.318 80.972 57.318 80.972z" id="SvgjsPath4343"></path></g></g><g id="svga-group-eyes-right"><g id="svga-group-eyesback-right"><path opacity="1" fill="url(#SvgjsRadialGradient4318)" d="M138.048 84.523c0.506-2.285-5.191-3.973-12.711-3.051 -7.518 0.923-12.738 5.524-12.052 7.844 0.38 1.286 10.639 3.245 14.253 2.847C131.202 91.758 136.826 90.04 138.048 84.523z" id="SvgjsPath4317"></path></g><g transform="translate(0.75 -0.5)" id="svga-group-eyesiriswrapper-right"><g id="svga-group-eyesiriscontrol-right"><g transform="matrix(0.79999927 0 0 0.79999927 25.000091249999997 17.400063509999995)" id="svga-group-eyesiris-right"><path opacity="1" stroke-width="none" fill="#4d3623" d="M133.5 87c0 4.694-3.806 8.5-8.499 8.5 -4.694 0-8.501-3.806-8.501-8.5l0 0c0-4.694 3.807-8.5 8.501-8.5C129.694 78.499 133.5 82.305 133.5 87L133.5 87z" id="SvgjsPath4012"></path><path opacity="1" fill="url(#SvgjsRadialGradient4014)" d="M124.048 78.595c-0.033 0.004-0.066 0.008-0.101 0.012 0.041 0.191 0.081 0.384 0.12 0.575C124.06 78.987 124.055 78.789 124.048 78.595zM124.066 79.18c0.099 2.793 0.262 5.282 0.732 6.183C125.047 84.377 124.625 81.92 124.066 79.18zM124.8 85.365c-0.061 0.236-0.153 0.397-0.294 0.452 -0.142 0.053-0.319-0.008-0.521-0.146 0.058 0.236 0.052 0.422-0.051 0.537 -0.102 0.114-0.285 0.142-0.527 0.11 0.16 0.184 0.242 0.353 0.206 0.5 -0.039 0.148-0.189 0.258-0.415 0.343 0.225 0.088 0.376 0.199 0.411 0.347 0.036 0.148-0.046 0.315-0.205 0.498 0.241-0.029 0.426 0.001 0.525 0.115 0.101 0.114 0.106 0.301 0.05 0.537 0.199-0.137 0.376-0.197 0.518-0.142 0.143 0.053 0.234 0.216 0.291 0.454 0.114-0.215 0.243-0.353 0.396-0.368 0.148-0.02 0.307 0.084 0.466 0.267 0.002-0.244 0.053-0.423 0.181-0.51 0.124-0.086 0.311-0.069 0.537 0.018 -0.11-0.216-0.148-0.398-0.078-0.534 0.071-0.135 0.245-0.207 0.487-0.235 -0.199-0.14-0.321-0.283-0.318-0.436 -0.001-0.153 0.119-0.296 0.321-0.434 -0.241-0.03-0.412-0.103-0.484-0.237 -0.07-0.135-0.031-0.319 0.081-0.535 -0.229 0.085-0.413 0.102-0.538 0.016 -0.126-0.086-0.177-0.267-0.178-0.51 -0.158 0.182-0.316 0.282-0.468 0.262C125.041 85.714 124.911 85.58 124.8 85.365zM125.66 85.471c0.679-0.758 1.446-3.13 2.224-5.813C126.674 82.174 125.662 84.453 125.66 85.471zM127.883 79.657c0.085-0.172 0.172-0.348 0.253-0.524 -0.03-0.011-0.06-0.024-0.09-0.037C127.992 79.284 127.938 79.472 127.883 79.657zM126.377 85.965c0.953-0.357 2.736-2.101 4.671-4.115C128.808 83.517 126.851 85.065 126.377 85.965zM131.048 81.851c0.142-0.106 0.287-0.213 0.433-0.318 -0.021-0.025-0.043-0.047-0.06-0.07C131.297 81.59 131.174 81.722 131.048 81.851zM126.777 86.738c1.01 0.125 3.399-0.591 6.052-1.475C130.068 85.698 127.617 86.159 126.777 86.738zM132.829 85.263c0.156-0.022 0.318-0.048 0.478-0.073 -0.007-0.026-0.013-0.054-0.02-0.081C133.135 85.16 132.979 85.212 132.829 85.263zM126.775 87.606c0.836 0.583 3.284 1.057 6.038 1.505C130.171 88.214 127.786 87.484 126.775 87.606zM132.813 89.111c0.135 0.047 0.271 0.095 0.404 0.138 0.007-0.024 0.013-0.047 0.018-0.071C133.098 89.158 132.954 89.135 132.813 89.111zM126.367 88.375c0.471 0.902 2.42 2.462 4.649 4.142C129.092 90.492 127.32 88.737 126.367 88.375zM131.018 92.514c0.083 0.087 0.17 0.179 0.253 0.268 0.014-0.017 0.027-0.031 0.043-0.046C131.215 92.662 131.113 92.587 131.018 92.514zM125.652 88.867c-0.004 1.019 0.995 3.302 2.191 5.827C127.079 92.006 126.327 89.628 125.652 88.867zM127.844 94.694c0.03 0.106 0.062 0.215 0.09 0.324 0.021-0.008 0.036-0.015 0.055-0.02C127.941 94.896 127.892 94.793 127.844 94.694zM124.788 88.968c-0.476 0.902-0.653 3.386-0.768 6.178C124.594 92.413 125.031 89.958 124.788 88.968zM124.021 95.146c-0.023 0.106-0.044 0.214-0.066 0.323 0.02 0.004 0.035 0.005 0.055 0.007C124.013 95.368 124.018 95.254 124.021 95.146zM123.979 88.657c-0.844 0.576-2.154 2.697-3.553 5.114C122.204 91.617 123.733 89.645 123.979 88.657zM120.427 93.771c-0.074 0.09-0.152 0.185-0.229 0.274 0.018 0.012 0.034 0.02 0.053 0.034C120.309 93.976 120.369 93.873 120.427 93.771zM123.405 88.006c-1.015 0.119-3.16 1.385-5.522 2.875C120.46 89.801 122.726 88.768 123.405 88.006zM117.883 90.884c-0.122 0.051-0.247 0.102-0.372 0.156 0.009 0.019 0.021 0.038 0.033 0.057C117.658 91.027 117.771 90.954 117.883 90.884zM123.198 87.161c-0.951-0.365-3.441-0.238-6.227-0.016C119.755 87.383 122.244 87.521 123.198 87.161zM116.972 87.145c-0.151-0.014-0.308-0.028-0.457-0.041 -0.001 0.027-0.003 0.053-0.001 0.08C116.669 87.169 116.822 87.156 116.972 87.145zM123.407 86.318c-0.67-0.763-2.932-1.809-5.499-2.905C120.259 84.915 122.397 86.196 123.407 86.318zM117.908 83.413c-0.147-0.095-0.297-0.189-0.446-0.285 -0.013 0.026-0.026 0.053-0.041 0.078C117.585 83.276 117.75 83.344 117.908 83.413zM123.985 85.67c-0.239-0.989-1.758-2.967-3.521-5.132C121.849 82.963 123.147 85.09 123.985 85.67zM120.465 80.538c-0.095-0.163-0.188-0.329-0.281-0.494 -0.026 0.018-0.055 0.037-0.079 0.054C120.224 80.245 120.348 80.393 120.465 80.538z" id="SvgjsPath4013"></path><path opacity="1" fill="url(#SvgjsRadialGradient4018)" d="M126.255 78.622c-0.034-0.004-0.066-0.01-0.1-0.014 -0.011 0.196-0.022 0.393-0.034 0.586C126.164 79.004 126.211 78.812 126.255 78.622zM126.12 79.193c-0.627 2.724-1.114 5.17-0.892 6.162C125.724 84.467 125.95 81.984 126.12 79.193zM125.229 85.356c-0.119 0.212-0.25 0.344-0.401 0.36 -0.15 0.014-0.306-0.091-0.464-0.276 -0.006 0.243-0.06 0.421-0.188 0.505 -0.128 0.083-0.313 0.063-0.539-0.03 0.107 0.219 0.143 0.403 0.069 0.536 -0.075 0.133-0.249 0.201-0.489 0.224 0.194 0.144 0.312 0.289 0.308 0.441 -0.003 0.152-0.126 0.292-0.327 0.428 0.24 0.034 0.41 0.111 0.478 0.247 0.067 0.136 0.025 0.318-0.091 0.532 0.229-0.081 0.414-0.093 0.537-0.003 0.123 0.088 0.17 0.27 0.164 0.514 0.166-0.177 0.325-0.278 0.478-0.253 0.148 0.02 0.274 0.16 0.382 0.379 0.064-0.236 0.16-0.396 0.306-0.447 0.143-0.051 0.318 0.014 0.515 0.157 -0.051-0.237-0.041-0.423 0.063-0.536s0.29-0.136 0.532-0.102c-0.157-0.187-0.238-0.356-0.195-0.504 0.039-0.148 0.192-0.255 0.423-0.336 -0.226-0.091-0.372-0.206-0.407-0.354 -0.032-0.149 0.053-0.316 0.218-0.495 -0.243 0.023-0.427-0.009-0.524-0.125 -0.099-0.115-0.102-0.303-0.039-0.538 -0.201 0.134-0.38 0.19-0.521 0.132C125.37 85.756 125.281 85.593 125.229 85.356zM126.033 85.683c0.852-0.558 2.206-2.65 3.652-5.04C127.865 82.76 126.298 84.699 126.033 85.683zM129.685 80.641c0.126-0.145 0.255-0.292 0.38-0.44 -0.027-0.019-0.052-0.04-0.078-0.06C129.886 80.31 129.785 80.477 129.685 80.641zM126.597 86.345c1.013-0.099 3.187-1.322 5.577-2.767C129.578 84.609 127.287 85.598 126.597 86.345zM132.173 83.579c0.165-0.065 0.333-0.131 0.501-0.195 -0.014-0.029-0.029-0.056-0.04-0.083C132.481 83.392 132.328 83.487 132.173 83.579zM126.783 87.194c0.943 0.382 3.437 0.309 6.227 0.142C130.231 87.042 127.745 86.853 126.783 87.194zM133.01 87.336c0.158 0.019 0.32 0.036 0.48 0.053 0.001-0.027 0.002-0.055 0.003-0.083C133.332 87.316 133.168 87.326 133.01 87.336zM126.558 88.033c0.655 0.78 2.898 1.871 5.442 3.017C129.679 89.499 127.565 88.177 126.558 88.033zM132 91.049c0.117 0.08 0.236 0.161 0.354 0.238 0.013-0.021 0.024-0.042 0.035-0.063C132.262 91.168 132.129 91.109 132 91.049zM125.964 88.67c0.221 0.993 1.699 3.004 3.419 5.205C128.048 91.419 126.791 89.266 125.964 88.67zM129.384 93.872c0.059 0.106 0.117 0.217 0.176 0.325 0.018-0.013 0.034-0.023 0.053-0.034C129.536 94.065 129.458 93.967 129.384 93.872zM125.146 88.96c-0.267 0.982 0.107 3.447 0.608 6.195C125.711 92.361 125.601 89.87 125.146 88.96zM125.754 95.155c0.002 0.11 0.004 0.224 0.004 0.337 0.021-0.003 0.038-0.005 0.058-0.005C125.796 95.376 125.775 95.264 125.754 95.155zM124.285 88.834c-0.693 0.748-1.508 3.102-2.341 5.769C123.205 92.11 124.265 89.853 124.285 88.834zM121.944 94.603c-0.05 0.096-0.099 0.195-0.147 0.295 0.017 0.008 0.032 0.013 0.051 0.021C121.879 94.815 121.913 94.707 121.944 94.603zM123.584 88.324c-0.964 0.338-2.779 2.048-4.756 4.021C121.104 90.724 123.091 89.215 123.584 88.324zM118.828 92.345c-0.095 0.067-0.194 0.138-0.29 0.206 0.014 0.016 0.027 0.028 0.041 0.045C118.661 92.511 118.746 92.428 118.828 92.345zM123.197 87.546c-1.01-0.148-3.409 0.521-6.078 1.349C119.889 88.518 122.345 88.106 123.197 87.546zM117.119 88.897c-0.131 0.018-0.265 0.034-0.4 0.054 0.005 0.021 0.011 0.042 0.018 0.063C116.865 88.977 116.993 88.936 117.119 88.897zM123.217 86.677c-0.824-0.599-3.263-1.121-6.01-1.627C119.833 86 122.202 86.777 123.217 86.677zM117.207 85.05c-0.143-0.052-0.29-0.106-0.432-0.158 -0.008 0.026-0.016 0.051-0.021 0.077C116.907 84.995 117.06 85.022 117.207 85.05zM123.637 85.917c-0.45-0.911-2.363-2.506-4.561-4.23C120.959 83.747 122.693 85.538 123.637 85.917zM119.076 81.688c-0.118-0.13-0.236-0.26-0.355-0.391 -0.021 0.022-0.041 0.044-0.061 0.065C118.8 81.471 118.941 81.58 119.076 81.688zM124.363 85.44c0.024-1.017-0.93-3.321-2.073-5.868C122.999 82.273 123.704 84.663 124.363 85.44zM122.29 79.572c-0.049-0.182-0.096-0.366-0.144-0.55 -0.029 0.01-0.062 0.021-0.09 0.032C122.134 79.227 122.214 79.401 122.29 79.572z" id="SvgjsPath4017"></path><path opacity="1" stroke-width="none" fill="#4d3623" d="M128.334 87c0 1.842-1.492 3.333-3.333 3.333s-3.335-1.492-3.335-3.333c0-1.841 1.494-3.334 3.335-3.334C126.844 83.666 128.334 85.159 128.334 87z" id="SvgjsPath4021"></path><path opacity="0.9" stroke-width="none" fill="#000000" d="M128.334 87c0 1.842-1.492 3.333-3.333 3.333s-3.335-1.492-3.335-3.333c0-1.841 1.494-3.334 3.335-3.334C126.844 83.666 128.334 85.159 128.334 87z" id="SvgjsPath4022"></path><path opacity="0.5" fill="url(#SvgjsLinearGradient4024)" d="M120.35 90.893c0.636-0.427 1.5-0.255 1.927 0.38 0.427 0.637 0.258 1.5-0.379 1.927 -0.638 0.429-1.5 0.258-1.927-0.378C119.544 92.185 119.713 91.32 120.35 90.893L120.35 90.893z" id="SvgjsPath4023"></path><path opacity="0.5" fill="url(#SvgjsLinearGradient4028)" d="M127.635 86.536c-0.356 0.53-1.373 0.468-2.275-0.136 -0.903-0.605-1.346-1.526-0.991-2.055l0.001-0.001c0.354-0.53 1.372-0.469 2.274 0.137 0.903 0.604 1.346 1.524 0.992 2.054C127.635 86.536 127.635 86.536 127.635 86.536z" id="SvgjsPath4027"></path><path opacity="0.75" fill="url(#SvgjsLinearGradient4032)" d="M131.682 85.121c-0.806 1.237-2.884 1.31-4.641 0.166 -1.756-1.145-2.527-3.075-1.722-4.311 0.806-1.235 2.884-1.31 4.641-0.166C131.715 81.956 132.485 83.887 131.682 85.121L131.682 85.121z" id="SvgjsPath4031"></path></g></g></g><g id="svga-group-eyesfront-right"><path opacity="1" stroke-width="none" fill="#f6e4e2" d="M126.5 63c-9.94 0-18 11.192-18 25 0 13.807 8.06 24.999 18 24.999s18-11.192 18-24.999C144.5 74.192 136.44 63 126.5 63zM127.538 92.163c-3.614 0.398-13.873-1.561-14.253-2.847 -0.687-2.32 4.534-6.921 12.052-7.844 7.52-0.922 13.217 0.767 12.711 3.051C136.826 90.04 131.202 91.758 127.538 92.163z" id="SvgjsPath4352"></path><path opacity="1" fill="url(#SvgjsRadialGradient4354)" d="M127.538 92.163c-3.614 0.398-13.873-1.561-14.253-2.847 -0.687-2.32 4.534-6.921 12.052-7.844 6.46-0.792 11.563 0.345 12.556 2.128 -0.898-6.4-7.7-11.397-15.987-11.434 -8.911-0.037-16.148 5.676-16.172 12.765 -0.021 7.088 7.185 12.862 16.095 12.902 8.913 0.037 16.149-5.676 16.173-12.764 0-0.105-0.016-0.208-0.019-0.313C136.652 90.083 131.148 91.764 127.538 92.163z" id="SvgjsPath4353"></path><path opacity="1" fill="url(#SvgjsRadialGradient4359)" d="M138.048 84.523c0.506-2.285-5.191-3.973-12.711-3.051 -7.518 0.923-12.738 5.524-12.052 7.844 0.38 1.286 10.639 3.245 14.253 2.847C131.202 91.758 136.826 90.04 138.048 84.523z" id="SvgjsPath4358"></path><path opacity="1" stroke-width="none" fill="#c8837c" d="M137.651 79.417c-4.208-1.978-9.35-2.16-13.838-1.005 -2.404 0.561-4.965 1.285-7.063 2.638 -1.945 1.135-3.525 2.5-5.002 4.19 1.342-1.701 2.773-3.118 4.623-4.27 2.276-1.416 4.769-2.294 7.364-2.916C128.322 76.928 133.458 77.184 137.651 79.417z" id="SvgjsPath4362"></path><path opacity="1" stroke-width="none" fill="#000000" d="M142.682 80.972c0 0-2.328 0.881-3.595 0.62 0.39-0.459 1.096-1.604 1.096-1.604s-1.853 0.551-3.151 0.032c-0.88-0.352-4.065-1-5.456-1.066 -1.687-0.082-5.073 0.125-6.735 0.424 -3.374 0.608-8.985 2.63-11.678 7.184 -0.255 0.572-1.407 0.921-1.407 0.921s1.02-0.215 1.149 0.042c0.282 0.561-1.298 2.016-1.496 2.197 0.161-0.145 1.289-1.135 1.722-0.967 0.061 0.022 0.137 0.388 0.155 0.482 -0.3-2.426 4.838-6.746 12.052-7.604 7.52-0.894 13.217 0.743 12.711 2.958 -1.222 5.348-6.846 7.013-10.51 7.405 -2.526 0.271-8.298-0.577-11.675-1.537l-1.011-0.317c1.999 1.009 7.524 2.195 9.767 2.403 0.744 0.07 2.24 0.104 2.986 0.085 5.949-0.158 10.16-3.179 11.729-7.26 0.125-0.328 0.494-0.619 0.838-0.696 1.604-0.361 5.096-1.811 5.096-1.811 -2.32 0.361-3.483 0.674-5.305 0.059C141.743 82.256 142.682 80.972 142.682 80.972z" id="SvgjsPath4363"></path></g></g><g id="svga-group-facehighlight-single"><path opacity="1" fill="url(#SvgjsRadialGradient2754)" d="M140.204 113.007c0.035 22.275-17.995 40.365-40.273 40.396 -22.274 0.036-40.361-17.993-40.396-40.272C59.501 90.857 77.53 72.77 99.808 72.735 122.083 72.701 140.171 90.73 140.204 113.007z" id="SvgjsPath2753"></path><path opacity="1" fill="url(#SvgjsRadialGradient2758)" d="M135,55.999c0,19.329-15.671,35-35,35c-19.329,0-35-15.671-35-35s15.671-35,35-35C119.329,20.999,135,36.67,135,55.999z" id="SvgjsPath2757"></path></g><g transform="rotate(1e-7 71.39453105 71.490234375) translate(-2.0000002 1)" id="svga-group-eyebrows-left"><path stroke="none" opacity="1" stroke-width="none" fill="#3b3128" d="M54.351 74.996c9.743-15.115 36.491 5.148 38.018-1.191 0.299-1.271-0.407-2.015-1.564-2.492C77.184 65.807 59.156 61.18 54.351 74.996z" id="SvgjsPath4188"></path></g><g transform="rotate(1e-7 128.60546895 71.490234375) translate(2.0000002 1)" id="svga-group-eyebrows-right"><path stroke="none" opacity="1" stroke-width="none" fill="#3b3128" d="M145.649 74.996c-9.743-15.115-36.491 5.148-38.018-1.191 -0.299-1.271 0.407-2.015 1.564-2.492C122.816 65.807 140.844 61.18 145.649 74.996z" id="SvgjsPath4189"></path></g><g id="svga-group-nose-single"><path opacity="1" stroke-width="none" fill="#e7c1bd" d="M97.363 92.602c0 0 0.055 7.962-0.458 9.512 -1.129 3.405-6.123 11.297-5.49 13.486 0.985 3.403 5.817 3.652 8.259 3.771 2.338 0.115 7.091-0.055 7.857-2.267 0.312-0.9-0.361-3.197-0.361-3.197s-2.165 2.228-7.266 1.98c-1.456-0.07-3.824-1.5-3.851-3.517 -0.036-2.734 1.805-5.87 2.135-8.583C98.438 101.726 97.363 92.602 97.363 92.602z" id="SvgjsPath3120"></path><path opacity="1" stroke-width="none" fill="#c8837c" d="M104.209 117.032c0.881 0 1.119 0.234 1.119 0.522 0 0.29-0.274 0.735-1.119 0.522 -0.928-0.231-2.548-0.124-2.548-0.124S103.328 117.032 104.209 117.032zM95.8 117.032c-0.881 0.001-1.119 0.236-1.119 0.525 0 0.288 0.265 0.704 1.119 0.521 0.941-0.201 2.548-0.125 2.548-0.125S96.682 117.035 95.8 117.032zM107.169 113.906c0 0 1.22 1.384 0.966 2.847 -0.246 1.421-2.709 2.047-2.709 2.047s1.71-1.085 1.917-2.403C107.439 115.781 107.169 113.906 107.169 113.906zM92.12 112.482c0 0-0.89 1.938-0.632 3.117 0.467 2.13 3.032 2.982 3.032 2.982s-1.601-1.462-2.17-2.753C91.729 114.42 92.12 112.482 92.12 112.482z" id="SvgjsPath3121"></path><path opacity="1" stroke-width="none" fill="#ffffff" d="M104.166 114.937c0.854-0.637 0.939-1 0.763-1.237 -0.176-0.238-0.688-0.389-1.403 0.379 -0.788 0.846-2.502 1.47-2.502 1.47S103.312 115.574 104.166 114.937z" id="SvgjsPath3122"></path></g><g id="svga-group-hair-front"><path opacity="0.1" stroke-width="none" fill="#3b3128" d="M142.198 28.734c-9.237-8.79-44.549-0.761-55.197 0.239C76.86 29.755 63.475-1.366 43.396 78.452c0.045 3.839 1.29 10.633 2.796 15.468 0.145-0.101 0.286-0.208 0.431-0.306 0 0-0.518 3.257 6.058 14.39 -0.348-8.073 1.212-13.893 2.492-21.414 15.709-19.987 30.389-24.674 41.56-28.155C89.233 67.19 81.814 75.225 78.568 84c13.647-9.576 32.409-28.884 32.409-28.884S109.574 59.819 83.292 84c10.943-2.679 31.345-13.679 45.636-34.951 2.746 4.5-12.4 30.794-12.827 31.801 7.663-6.086 18.079-14.636 20.755-24.62 0 0 1.571 4.043 2.662 8.635 2.878 12.162 2.904 27.281 3.429 31.125 1.665-8.721 1.925-18.482 1.922-18.355 3.905 17.893 0.419 30.394 0.352 34.724 5.198-10.435 10.604-22.897 12.177-34.534C157.396 77.824 145.779 27.134 142.198 28.734z" id="SvgjsPath4099"></path><path opacity="1" stroke-width="none" fill="#3b3128" d="M170.618 67.866c-0.08-5.39-1.12-13.92-2.921-18.78 3.28 3.39 7.41 7.39 10.78 9.5 -4.46-3.86-5.841-7.16-15.921-28.3 -6.189-12.98-10.287-26.75-22.378-28.37 -4.079-0.56-8.05 0.99-11.779 2.59 -9.61-8.79-21.59-12.331-32.67-11.331 -33.88 2.51-42.917 24.391-61.037 28.771 2.84 0.83 7.616-0.468 10.336-1.748 -3.75 5.06-2.422 4.531-10.692 12.801 -3.37 3.34-6.483 7.444-10.543 9.854 5.449-0.681 8.312-4.834 16.282-9.104 -1.15 1.84-5.249 8.094-11.929 14.494 -2.87 2.74-7.599 6.584-10.899 8.914 2.41-0.96 9.489-3.726 15.608-9.152 -3.169 4.531-12.261 12.94-8.145 29.881 0.832-7.406-0.001-16.415 7.048-20.895 -0.784 3.301-3.814 10.222-1.603 17.708H41.09c0.047 3.839 1.341 10.934 2.909 15.769 0.151-0.101 0.297-0.208 0.449-0.306 0 0 0.502 3.257 7.343 14.39 -0.364-8.073 0.222-13.893 1.553-21.414 16.345-19.987 31.619-24.674 43.241-28.155 -7.804 8.755-13.814 18.837-17.193 27.612 11.046-11.66 33.834-29.767 33.834-29.767s-0.364 4.866-27.712 29.046c9.449-5.795 29.698-15.006 44.566-36.278 2.858 4.5-10.819 30.794-11.264 31.801 7.974-6.086 14.646-16.636 17.435-26.62 0 0 3.716 6.043 4.847 10.635 2.995 12.162 1.984 22.281 2.528 26.125 1.732-8.721 3.042-13.482 3.039-13.355 4.066 17.893-0.604 32.394-0.672 36.724 5.406-10.434 12.072-24.997 13.709-36.634H171.3C170.631 69.944 171.127 69.932 170.618 67.866z" id="SvgjsPath4100"></path><path opacity="1" stroke-width="none" fill="#1c150e" d="M177.236 37.286c-3.811-0.17-5.876 0.099-10.356-0.261 -0.67-1.53-2.738-5.55-3.438-7.07C166.941 33.055 174.206 36.976 177.236 37.286z" id="SvgjsPath4101"></path><path opacity="1" stroke-width="none" fill="#2c2219" d="M40.385 33.266c-7.787 4.224-11.305 8.458-15.656 9.179 4.06-2.41 6.46-5.99 9.83-9.33 8.27-8.27 7.26-8.3 11.01-13.36 -2.604 1.225-7.117 2.837-9.989 2.247C49.1 20.922 63.972 3.71 80 6 63.505 7.833 49.533 19.744 40.385 33.266zM118.817 77.397c11.188-23.146 11.904-26.578 11.264-31.801 -13.432 19.217-40.876 34.016-44.566 36.278 16.33-14.438 23.567-24.358 26.301-27.924C89.192 71.938 89.208 72.234 79.392 82.595c5.663-14.707 2.783-11.447 17.193-27.612 -6.263 1.876-11.361 3.689-15.442 5.618 0.567-1.342 0.738-2.05 2.64-4.833 7.124-4.361 21.086-15.032 31.086-18.481 -3.529 2.783-5.345 6.283-8.84 9.096 5.358-1.356 11.907-2.056 22.24-7.796 -0.553 0.442 17.922-8.631 11.935-19.03 3.684 2.625 0.95 13.336-0.784 23.305 3.888 5.373 4.755 11.915 6.033 18.583 0.121-2.193 0.47-7.496 0.016-9.648 2.284 5.926 5.567 13.815 5.526 22.481C155.411 62.569 152 52 152 41c3.791 6.331 5.29 17.906 6.192 25.033 0.916-4.582 1.52-8.026-0.544-14.033 1.302 1.624 3.089 2.834 4.352 5 -1.721-9.445-4.858-16.042-9.204-22.833C156.921 38.936 163 43 165 49c-1-11-5-22-12-31 3.743 4.367 7.097 8.734 10.061 13.343 9.618 20.183 11.033 23.448 15.417 27.242 -3.37-2.11-7.5-6.109-10.78-9.5 1.801 4.86 2.841 13.39 2.921 18.78 0.509 2.065 0.013 2.178 0.682 6.505h-11.597c-1.637 11.637-8.303 26.1-13.709 36.534 0.066-4.227 4.514-18.146 0.944-35.449 -0.088-0.424-0.175-0.847-0.272-1.275 0.003-0.127-1.307 4.635-3.039 13.355 -0.544-3.844 0.467-13.963-2.528-26.125 -1.131-4.592-4.847-10.635-4.847-10.635C128.832 69.641 120.864 76.769 118.817 77.397zM94.869 43.184C85.796 45.839 77 53 70 60c2-3 3-7 6-10 5-10 14-17 21-25 -15 9-24 22-35 35 3-6 6-14 11-19 -10 5-12 15-19 23 4-32 34-69 69-58C88.059-7.698 53.547 29.071 45.395 68.148 45.361 64.358 45.921 43.079 54 35c-8 6-10 16-15 23 -0.814-4.072 1.024-7.481 2.274-10.767 -1.054 1.576-3.016 2.758-4.23 4.512C39.577 43.671 42.073 35.284 50 30c-4.726 2.363-8.216 5.96-12.902 8.362 -2.15 2.944-5.13 6.637-8.769 10.124 -2.87 2.74-6.98 5.88-10.28 8.21 2.41-0.96 9.3-4.7 15.47-9.49 -2.95 4.77-12.27 12.74-8.9 29.41 0.33-7.42 0.52-15.68 7.57-20.16C31.405 59.757 28.145 67.514 30.356 75H41.09c0.047 3.839 1.341 10.633 2.909 15.468 0.151-0.101 0.297-0.208 0.449-0.306 0 0 0.318 1.985 3.66 8.081 0.96 1.751 2.157 3.824 3.684 6.309 -0.364-8.073 0.222-13.893 1.553-21.414 9.843-12.036 19.295-18.52 27.798-22.537C81.859 58.904 84.681 51.958 94.869 43.184z" id="SvgjsPath4102"></path><path opacity="1" stroke-width="none" fill="#1c150e" d="M39.14 35.028C50.711 12.323 73.942 5.8 82.235 5.829 64.286 9.892 51.536 17.819 39.14 35.028zM112.286 4.067C99.313 3.229 75.107 11.58 62.155 38.708 76.494 13.067 102.913 3.465 112.286 4.067zM144.313 7.883c-0.668-0.242-1.258-0.718-1.929-0.979 -7.811-3.035-14.957 2.381-15.565 7.654C127.992 9.383 135.786 4.803 144.313 7.883zM138.188 11.621c12.901-3.002 23.234 21.063 23.497 22.066C159.6 25.7 150.582 7.854 138.528 10.768c-3.965 0.959-7.038 3.953-9.309 7.198C131.586 15.113 134.468 12.47 138.188 11.621zM92.531 49.976c7.02-5.938 39.023-15.771 37.895-29.705C130.234 32.882 105.025 39.407 92.531 49.976zM123.893 16.667c-2.088-0.968-6.35-4.938-17.326 1.636C88.869 28.902 77.858 46.716 75.207 51.149 83.655 39.44 109.684 10.093 123.893 16.667z" id="SvgjsPath4103"></path><path opacity="1" stroke-width="none" fill="#4a423a" d="M77.774 9.337C58.393 16.2 45.395 30.218 45.395 30.218 54.68 20.083 63.288 12.957 77.774 9.337zM52.747 32.614c1.826-3.136 16.3-19.207 24.673-22.069C68.571 12.888 57.47 24.503 52.747 32.614zM72.415 30.195c0 0 14.956-18.491 31.382-22.259C90.858 9.004 79.387 19.403 72.415 30.195zM91.168 35.718c0.92-1.296 18.853-16.116 26.805-18.162C109.279 18.78 93.755 32.075 91.168 35.718zM106.619 29.037c1.081-1.479 8.328-8.794 17.066-9.925C115.821 19.303 111.162 22.824 106.619 29.037zM98.693 39.328c4.613-6.021 17.328-8.604 25.865-17.449C116.765 29.092 105.065 31.012 98.693 39.328zM114.135 42.83c1.002 0 18.698-9.222 22.402-13.077 3.405-3.543 3.938-7.255 1.396-8.925 3.425 3.821-1.259 7.586-3.095 9.151C133.101 31.461 125.346 36.745 114.135 42.83 114.136 42.83 115.105 42.303 114.135 42.83zM133.194 36.025c6.469-4.646 10.608-13.196 6.736-16.54 -1.339-1.156-3.436-1.577-5.168-1.556 1.738-0.021 4.151 0.622 5.297 1.993 4.005 4.778-3.688 12.915-8.86 16.402 -7.433 5.012-16.3 7.966-24.96 10.046C115.538 44.373 125.367 41.646 133.194 36.025zM74.46 34.228c0 0 12.903-15.915 26.442-21.077 1.596-0.608 3.241-0.829 4.901-1.161C93.18 13.181 81.436 23.811 74.46 34.228zM71.001 43.084c1-0.716 18.004-20.675 33.561-26.663C91.336 19.74 78.568 31.611 71.001 43.084zM159.665 35.255c-0.596-1.001-5.457-18.448-15.779-16.404C150.81 18.188 156.162 28.076 159.665 35.255zM150.497 54.228c0.147-4.855 2.044-15.259-6.717-23.478C148.394 36.237 150.662 45.406 150.497 54.228z" id="SvgjsPath4104"></path><path opacity="1" stroke-width="none" fill="#0d0905" d="M183.02 61.345c-8.591-7.05-8.95-8.69-15.57-23.75 4.52 0.38 8.39 0.06 12.06-0.2 -7.56-0.74-13.149-6.29-16.029-8.68 -7.57-16.09-13.48-31.96-30.74-26.41 -1.36 0.44-2.71 0.96-4.04 1.57 -7.68-8.32-19.42-12.54-30.32-12.49 -31.79 0.12-46.83 23.91-60.24 29.1 -1.6 0.62-3.38 1.09-5.08 1.49 3.02 1.09 5.67 1.29 10.67-0.75 -6.2 8.24-3.19 3.92-10.56 11.66 -3.32 3.46-6.43 8.08-11.15 10.25 3.97 0.5 6.69-0.69 10.14-3.04 2.39-1.61 4.84-3.66 6.64-4.95 -7.24 11.04-24.31 23.26-24.31 23.26 5.59-1.06 11.42-4.38 16.11-8.14 -0.17 0.23-0.35 0.46-0.52 0.69 -2.46 3.25-4.83 6.75-5.96 10.71 -2.02 7.04-1.06 13.639 1.46 20.489 -0.64-6.07-0.74-18.58 5.67-24.379C30.026 61.248 27.022 68.061 29.164 75h0.875 0.317c-2.211-7.485 1.049-15.243 1.833-18.544 -7.05 4.48-7.24 12.74-7.57 20.16 -3.37-16.67 5.95-24.64 8.9-29.41 -6.17 4.79-13.06 8.53-15.47 9.49 3.3-2.33 7.41-5.47 10.28-8.21 6.68-6.4 11.16-13.52 12.31-15.36 -7.97 4.27-11.51 8.59-15.91 9.32 4.06-2.41 6.46-5.99 9.83-9.33 8.27-8.27 7.26-8.3 11.01-13.36 -2.72 1.28-7.53 2.99-10.37 2.16 18.12-4.38 26.65-25.73 60.53-28.24 11.081-1 23.06 2.04 32.67 10.83 3.729-1.6 7.7-2.95 11.779-2.39 12.091 1.62 15.591 15.19 21.78 28.17 10.08 21.14 11.66 24.14 16.12 28 -3.37-2.11-7.5-6.41-10.78-9.8 1.801 4.86 3.04 13.19 3.12 18.58 -2.05-6.78-5.83-12.26-9.87-17.39 0.851 1.22 8.21 10.8 10.021 22.35 -3.05-6.02-6.92-11.45-11.21-16.62 6.775 9.128 9.306 14.798 11.318 19.136 0.264 0 0.029-0.217 1.079 0.006 -0.079-0.174-0.238-0.532-0.317-0.703 -0.061-1 1.05-12.39-2.931-23.38C173.339 55.875 175.669 58.795 183.02 61.345zM176.439 37.186c-3.811-0.17-4.88-0.2-9.36-0.56 -0.67-1.53-2.34-4.35-3.04-5.87C167.539 33.855 173.409 36.875 176.439 37.186zM156.85 87.045c-2.49 9.14-6.841 19.28-11.99 26.3 1.87-13.8 3.479-27.76 1.779-37.28 -0.569 5.73-1.899 11.2-3.64 16.67 0.41-7.11-0.35-14.37-1.02-21.44 -0.341-3.52-0.83-7.01-1.57-10.47 -0.7-3.29-2.34-6.27-3.84-9.25 -1.78 5.84-4.65 10.85-7.84 16.03 -3.07 4.99-6.88 9.18-11.92 12.14 3.25-5.36 6.229-12.75 8.229-16.96 1.84-3.88 5.39-10.32 4.9-16.33 -5.561 8.7-14.36 16.58-22.58 22.81 -7.86 5.96-24.62 14.67-25.62 15.05 0.2-0.22 9.54-8.66 15.53-14.51 11.36-11.08 13.21-13.3 14.78-15.65 -5.8 5.05-11.42 10.3-17.24 15.33 -5.66 4.89-11.44 9.71-16.74 15.01 1.5-5.41 3.99-10.33 6.6-15.03 2.85-5.11 6.46-9.39 10.58-13.51 -23.378 7.551-39.08 24.38-41.29 27.14 -0.51 4.42-1.17 19.86-0.71 26.4 -5.932-10.697-18.602-27.757-11.658-54.876 -2.687 13.262 0.833 34.105 9.848 48.787 -0.29-6.43 0.32-13.03 1.44-19.36 -1.86 1.91-3.76 3.72-5.87 5.34 1.09-6.52 4.68-12.63 7.9-18.31 3.06-5.37 6.49-10.68 11.13-14.84 -3.67 4.46-6.98 9.89-9.99 15.14 -3.3 5.75-6.98 12.73-8.18 16.9 6.77-6.6 10.3-14.29 26.97-24.64 9.7-6.02 15.45-7.08 21.66-8.94 1.07-1.1 2.13-2.19 3.17-3.32 1.99-2.16 3.74-4.46 5.47-6.83 -6.689 10.42-8.76 10.79-13.779 17.45 -7.61 10.09-8.34 13.08-11.13 19.26 6.1-6.44 9.41-8.49 15.85-14.6 5.07-4.82 16.58-13.46 16.89-13.98 1.25-2.11 2.46-5.22 4.15-8.13 -1.7 3.56-2.63 7.37-4.78 10.7 -2.16 3.34-5.29 6.29-7.97 9.21 -4.42 4.81-10.89 10.75-17.41 16.21 4.99-3.06 10.19-5.66 15.03-8.99 4.7-3.23 9.27-6.71 13.56-10.48 8.301-7.28 15.11-15.79 20.34-25.49 -1.63 3.43-3.42 6.79-5.46 9.99 0.631 3.72-0.199 7.31-1.569 10.78 -0.41 1.04-7.29 16.5-9.37 20.14 2.96-2.26 5.1-5.08 7.16-8.15 6.95-10.4 10.42-17.72 12.35-30.55 -0.399 4.22-0.979 8.44-2.11 12.54 2.061 5.1 3.341 6.48 4.5 10.88 2.12 8.04 2.54 16.39 2.32 24.67 2.26-11.38 3.4-22.64 1.76-34.21 2.41 13.95 1.49 22.32 1.49 22.32 0.5 2.2 0.88 4.42 1.16 6.66 1.21 9.68 0.1 19.31-1.81 28.82 9.399-18.14 11.949-43.65 7.229-63.271 2.04 6.83 3.16 13.82 3.34 20.95 0.181 6.9-0.05 14.01-1.229 20.82 2.29-5.99 4.412-15.707 4.412-17.556C160.342 74.499 158.489 81.005 156.85 87.045z" id="SvgjsPath4105"></path></g><g transform="matrix(0.89999969 0 0 0.89999969 10.000226313105472 8.700612909316405)" id="svga-group-glasses-single"><path opacity="0.2" stroke-width="none" fill="#ffffff" d="M143.62 100.1c-2.36 2.2-6.23 3.04-13.56 3.04 -9.78 0-16.18-1.09-20.41-9.51 -3.29-6.54-4.62-13.56-3.02-15.98 2.21-3.34 8.57-5.61 15.67-6.28C134.63 77.23 143.29 88.98 143.62 100.1zM72.01 71.17c-7.64 0.21-15.09 2.35-18.27 7.05 -2.18 3.21-1.69 12.55-0.22 16.94 2 5.99 5.07 7.98 16.42 7.98 9.78 0 16.18-1.09 20.41-9.51 0.42-0.84 0.81-1.69 1.17-2.54C88.29 82.95 81.16 75.43 72.01 71.17z" id="SvgjsPath4194"></path><path opacity="0.4" stroke-width="none" fill="#ffffff" d="M146.48 95.17c-0.71 2.12-1.56 3.73-2.86 4.94 -0.33-11.12-8.99-22.87-21.33-28.74 9.37-0.89 19.99 0.99 23.97 6.86C148.44 81.44 147.95 90.77 146.48 95.17zM93.38 77.65c-2.79-4.23-12.22-6.73-21.37-6.47 9.16 4.25 16.28 11.77 19.52 19.92C93.94 85.36 94.77 79.76 93.38 77.65z" id="SvgjsPath4195"></path><path stroke="none" opacity="1" stroke-width="none" fill="#2e0914" d="M151.79 73.61c-10.18-5.46-36.14-7.01-45.5 0.15 -0.8 0.47-4.23-0.53-6.29-0.53 -1.95 0-5.42 1.05-6.29 0.53 -9.36-7.16-35.32-5.61-45.5-0.15 -1.46 0.79-1.62 4.51-0.35 5.08 0.91 0.41 1.51 0.98 1.46 1.98C49 86.29 50.55 93.59 51.23 95.6c0.87 2.59 2.44 7.41 9.29 8.6 5.83 1.01 16.43 1.48 21.94-0.17 9.99-2.98 14.24-18.04 14.42-23.17l0.01 0.02c0.4-1.8 5.82-1.8 6.23 0l0.01-0.02c0.17 5.13 4.43 20.19 14.42 23.17 5.51 1.65 16.11 1.18 21.94 0.17 6.85-1.19 8.42-6.01 9.29-8.6 0.68-2.02 2.23-9.31 1.92-14.93 -0.05-1 0.56-1.57 1.46-1.98C153.41 78.12 153.25 74.4 151.79 73.61zM81.41 101.36c-5.06 1.51-14.32 1.61-19.71 0.67 -4.54-0.79-6.44-3.26-7.7-7.03 -1.48-4.4-1.87-13.51 0.16-16.5 6.76-9.98 33.87-8.05 38.8-0.58C95.16 81.27 90.89 98.53 81.41 101.36zM146 95.01c-1.26 3.77-3.17 6.24-7.7 7.03 -5.39 0.94-14.65 0.84-19.71-0.67 -9.48-2.83-13.75-20.09-11.55-23.44 4.93-7.47 32.04-9.4 38.8 0.58C147.87 81.49 147.48 90.61 146 95.01z" id="SvgjsPath4196"></path><path stroke="none" opacity="1" stroke-width="none" fill="#3d121f" d="M118.58 101.32c2.79 0.83 6.86 1.24 10.85 1.27 -12.54 1.22-15.39-3.4-17.12-5.16 -3.52-3.59-5.69-8.95-5.85-16.65C106.49 86.86 110.76 98.99 118.58 101.32zM93.69 73.72c-9.36-7.16-35.32-5.62-45.5-0.15C71.43 67.05 84.93 70.42 93.69 73.72zM61.68 102c-4.54-0.79-6.44-3.26-7.7-7.03 -1.32-3.93-1.77-11.62-0.4-15.35 -1.83 4.22-1.12 12.39 0.26 16.5 1.6 4.8 4.54 7.18 17.34 6.46C67.71 102.65 64.25 102.44 61.68 102zM152.97 76.3c-0.04-1.13-0.45-2.32-1.2-2.73 -9.98-5.36-35.14-6.94-44.93-0.25C120 68.05 138.97 67.31 152.97 76.3z" id="SvgjsPath4197"></path></g></g></g><rect style="display:none;" opacity="0.5" fill="#ecf0f1" y="185" x="0" height="15" width="200" id="SvgjsRect1033"></rect><text y="185" x="100" fill="#000000" font-weight="400" text-anchor="middle" font-size="0.84em" style="font-size:0.84em;font-family:&quot;Roboto&quot;, &quot;Helvetica Neue&quot;, Helvetica, Arial, sans-serif;text-anchor:middle;font-weight:400;display:none;" font-family="&quot;Roboto&quot;, &quot;Helvetica Neue&quot;, Helvetica, Arial, sans-serif" id="SvgjsText1034"><tspan style="font-size:0.84em;font-family:&quot;Roboto&quot;, &quot;Helvetica Neue&quot;, Helvetica, Arial, sans-serif;text-anchor:middle;font-weight:400;" x="100" dy="1.2em" id="SvgjsTspan1035">Created on AvatarMaker.com</tspan></text></g><defs id="SvgjsDefs1001"><radialGradient class="svga-on-canvas-facehighlight-gradient-single-0" gradientUnits="userSpaceOnUse" r="40" cy="113" cx="100" id="SvgjsRadialGradient2754"><stop offset="0" stop-color="#ffffff" stop-opacity="0.5" id="SvgjsStop2755"></stop><stop offset="0.9" stop-color="#f6e4e2" stop-opacity="0" id="SvgjsStop2756"></stop></radialGradient><radialGradient class="svga-on-canvas-facehighlight-gradient-single-1" gradientUnits="userSpaceOnUse" r="36" cy="57" cx="100" id="SvgjsRadialGradient2758"><stop offset="0" stop-color="#ffffff" stop-opacity="0.5" id="SvgjsStop2759"></stop><stop offset="0.9" stop-color="#f6e4e2" stop-opacity="0" id="SvgjsStop2760"></stop></radialGradient><linearGradient class="svga-on-canvas-mouth-gradient-single-0" gradientUnits="userSpaceOnUse" y2="139" x2="100" y1="142" x1="100" id="SvgjsLinearGradient3101"><stop offset="0.1" stop-color="#eed2cf" stop-opacity="1" id="SvgjsStop3102"></stop><stop offset="1" stop-color="#e7c1bd" stop-opacity="1" id="SvgjsStop3103"></stop></linearGradient><radialGradient class="svga-on-canvas-eyesiris-gradient-left-1" gradientUnits="userSpaceOnUse" gradientTransform="matrix(0.096 -0.0248 0.0245 0.0961 140.5478 120.3577)" r="84.646" cy="-490.918" cx="-558.588" id="SvgjsRadialGradient3991"><stop offset="0" stop-color="#ffffff" stop-opacity="0.8" id="SvgjsStop3992"></stop><stop offset="1" stop-color="#ffffff" stop-opacity="0" id="SvgjsStop3993"></stop></radialGradient><radialGradient class="svga-on-canvas-eyesiris-gradient-left-2" gradientUnits="userSpaceOnUse" gradientTransform="matrix(0.0991 8.856325e-004 -0.0011 0.0991 130.3774 136.3533)" r="84.644" cy="-492.691" cx="-565.337" id="SvgjsRadialGradient3995"><stop offset="0" stop-color="#ffffff" stop-opacity="0.8" id="SvgjsStop3996"></stop><stop offset="1" stop-color="#ffffff" stop-opacity="0" id="SvgjsStop3997"></stop></radialGradient><linearGradient class="svga-on-canvas-eyesiris-gradient-left-5" gradientUnits="userSpaceOnUse" gradientTransform="matrix(1 0 0 1 -52 0)" y2="91.466" x2="123.61" y1="93.047" x1="122.283" id="SvgjsLinearGradient4001"><stop offset="0" stop-color="#ffffff" stop-opacity="1" id="SvgjsStop4002"></stop><stop offset="1" stop-color="#ffffff" stop-opacity="0" id="SvgjsStop4003"></stop></linearGradient><linearGradient class="svga-on-canvas-eyesiris-gradient-left-6" gradientUnits="userSpaceOnUse" gradientTransform="matrix(1 0 0 1 -50 0)" y2="87" x2="125" y1="85" x1="127" id="SvgjsLinearGradient4005"><stop offset="0" stop-color="#ffffff" stop-opacity="1" id="SvgjsStop4006"></stop><stop offset="1" stop-color="#ffffff" stop-opacity="0" id="SvgjsStop4007"></stop></linearGradient><linearGradient class="svga-on-canvas-eyesiris-gradient-left-7" gradientUnits="userSpaceOnUse" gradientTransform="matrix(1 0 0 1 -50 0)" y2="85" x2="126" y1="81" x1="130" id="SvgjsLinearGradient4009"><stop offset="0" stop-color="#ffffff" stop-opacity="1" id="SvgjsStop4010"></stop><stop offset="1" stop-color="#ffffff" stop-opacity="0" id="SvgjsStop4011"></stop></linearGradient><radialGradient class="svga-on-canvas-eyesiris-gradient-right-1" gradientUnits="userSpaceOnUse" gradientTransform="matrix(0.096 -0.0248 0.0245 0.0961 192.4794 119.8404)" r="84.646" cy="-490.73" cx="-578.76" id="SvgjsRadialGradient4014"><stop offset="0" stop-color="#ffffff" stop-opacity="0.8" id="SvgjsStop4015"></stop><stop offset="1" stop-color="#ffffff" stop-opacity="0" id="SvgjsStop4016"></stop></radialGradient><radialGradient class="svga-on-canvas-eyesiris-gradient-right-2" gradientUnits="userSpaceOnUse" gradientTransform="matrix(0.0991 8.856325e-004 -0.0011 0.0991 182.3104 135.839)" r="84.644" cy="-487.329" cx="-584.778" id="SvgjsRadialGradient4018"><stop offset="0" stop-color="#ffffff" stop-opacity="0.8" id="SvgjsStop4019"></stop><stop offset="1" stop-color="#ffffff" stop-opacity="0" id="SvgjsStop4020"></stop></radialGradient><linearGradient class="svga-on-canvas-eyesiris-gradient-right-5" gradientUnits="userSpaceOnUse" y2="91.467" x2="121.611" y1="93.047" x1="120.284" id="SvgjsLinearGradient4024"><stop offset="0" stop-color="#ffffff" stop-opacity="1" id="SvgjsStop4025"></stop><stop offset="1" stop-color="#ffffff" stop-opacity="0" id="SvgjsStop4026"></stop></linearGradient><linearGradient class="svga-on-canvas-eyesiris-gradient-right-6" gradientUnits="userSpaceOnUse" y2="87" x2="125" y1="85" x1="127" id="SvgjsLinearGradient4028"><stop offset="0" stop-color="#ffffff" stop-opacity="1" id="SvgjsStop4029"></stop><stop offset="1" stop-color="#ffffff" stop-opacity="0" id="SvgjsStop4030"></stop></linearGradient><linearGradient class="svga-on-canvas-eyesiris-gradient-right-7" gradientUnits="userSpaceOnUse" y2="85" x2="126" y1="81" x1="130" id="SvgjsLinearGradient4032"><stop offset="0" stop-color="#ffffff" stop-opacity="1" id="SvgjsStop4033"></stop><stop offset="1" stop-color="#ffffff" stop-opacity="0" id="SvgjsStop4034"></stop></linearGradient><linearGradient class="svga-on-canvas-glasses-gradient-single-0" gradientUnits="userSpaceOnUse" y2="109" x2="130" y1="69" x1="130" id="SvgjsLinearGradient4059"><stop offset="0" stop-color="#000000" stop-opacity="1" id="SvgjsStop4060"></stop><stop offset="1" stop-color="#000000" stop-opacity="0.8" id="SvgjsStop4061"></stop></linearGradient><linearGradient class="svga-on-canvas-glasses-gradient-single-1" gradientUnits="userSpaceOnUse" gradientTransform="matrix(-1 0 0 1 200 0)" y2="109" x2="130" y1="69" x1="130" id="SvgjsLinearGradient4063"><stop offset="0" stop-color="#000000" stop-opacity="1" id="SvgjsStop4064"></stop><stop offset="1" stop-color="#000000" stop-opacity="0.8" id="SvgjsStop4065"></stop></linearGradient><radialGradient class="svga-on-canvas-backs-gradient-single-1" gradientUnits="userSpaceOnUse" r="250" cy="225" cx="100" id="SvgjsRadialGradient4175"><stop offset="0" stop-color="#c5e0dc" stop-opacity="0" id="SvgjsStop4176"></stop><stop offset="1" stop-color="#a3d1ca" stop-opacity="1" id="SvgjsStop4177"></stop></radialGradient><radialGradient class="svga-on-canvas-eyesback-gradient-left-0" gradientUnits="userSpaceOnUse" gradientTransform="matrix(-0.9945 0.1042 0.1042 0.9945 192.8274 -12.4637)" r="15.117" cy="85.956" cx="129.05" id="SvgjsRadialGradient4311"><stop offset="0" stop-color="#ffffff" stop-opacity="1" id="SvgjsStop4312"></stop><stop offset="0.316" stop-color="#fcfdfd" stop-opacity="1" id="SvgjsStop4313"></stop><stop offset="0.505" stop-color="#f4f7f8" stop-opacity="1" id="SvgjsStop4314"></stop><stop offset="0.661" stop-color="#e5ecef" stop-opacity="1" id="SvgjsStop4315"></stop><stop offset="0.76" stop-color="#d8e2e7" stop-opacity="1" id="SvgjsStop4316"></stop></radialGradient><radialGradient class="svga-on-canvas-eyesback-gradient-right-0" gradientUnits="userSpaceOnUse" gradientTransform="matrix(0.9945 0.1042 -0.1042 0.9945 7.1735 -12.4637)" r="15.117" cy="85.956" cx="129.049" id="SvgjsRadialGradient4318"><stop offset="0" stop-color="#ffffff" stop-opacity="1" id="SvgjsStop4319"></stop><stop offset="0.316" stop-color="#fcfdfd" stop-opacity="1" id="SvgjsStop4320"></stop><stop offset="0.505" stop-color="#f4f7f8" stop-opacity="1" id="SvgjsStop4321"></stop><stop offset="0.661" stop-color="#e5ecef" stop-opacity="1" id="SvgjsStop4322"></stop><stop offset="0.76" stop-color="#d8e2e7" stop-opacity="1" id="SvgjsStop4323"></stop></radialGradient><radialGradient class="svga-on-canvas-eyesfront-gradient-left-0" gradientUnits="userSpaceOnUse" gradientTransform="matrix(-0.9945 0.1042 0.1042 0.9945 192.8274 -12.4637)" r="15.117" cy="85.956" cx="129.05" id="SvgjsRadialGradient4325"><stop offset="0" stop-color="#ffffff" stop-opacity="1" id="SvgjsStop4326"></stop><stop offset="0.316" stop-color="#fcfdfd" stop-opacity="1" id="SvgjsStop4327"></stop><stop offset="0.505" stop-color="#f4f7f8" stop-opacity="1" id="SvgjsStop4328"></stop><stop offset="0.661" stop-color="#e5ecef" stop-opacity="1" id="SvgjsStop4329"></stop><stop offset="0.76" stop-color="#d8e2e7" stop-opacity="1" id="SvgjsStop4330"></stop></radialGradient><radialGradient class="svga-on-canvas-eyesfront-gradient-left-3" gradientUnits="userSpaceOnUse" gradientTransform="matrix(0.9998 0.0208 0.0166 -0.7998 -44.9524 149.5433)" r="16.003" fy="84.527" fx="133.039" cy="84.496" cx="121.786" id="SvgjsRadialGradient4334"><stop offset="0" stop-color="#e7c1bd" stop-opacity="1" id="SvgjsStop4335"></stop><stop offset="0.7" stop-color="#e7c1bd" stop-opacity="0.3" id="SvgjsStop4336"></stop><stop offset="1" stop-color="#f6e4e2" stop-opacity="0" id="SvgjsStop4337"></stop></radialGradient><radialGradient class="svga-on-canvas-eyesfront-gradient-left-4" gradientUnits="userSpaceOnUse" gradientTransform="matrix(1.0336 0 0 1.0336 -1.6792 1.7282)" r="29.525" cy="107.529" cx="69.124" id="SvgjsRadialGradient4339"><stop offset="0.95" stop-color="#000000" stop-opacity="0" id="SvgjsStop4340"></stop><stop offset="1" stop-color="#000000" stop-opacity="0.3" id="SvgjsStop4341"></stop></radialGradient><radialGradient class="svga-on-canvas-eyesfront-gradient-right-0" gradientUnits="userSpaceOnUse" gradientTransform="matrix(0.9945 0.1042 -0.1042 0.9945 7.1735 -12.4637)" r="15.117" cy="85.956" cx="129.049" id="SvgjsRadialGradient4345"><stop offset="0" stop-color="#ffffff" stop-opacity="1" id="SvgjsStop4346"></stop><stop offset="0.316" stop-color="#fcfdfd" stop-opacity="1" id="SvgjsStop4347"></stop><stop offset="0.505" stop-color="#f4f7f8" stop-opacity="1" id="SvgjsStop4348"></stop><stop offset="0.661" stop-color="#e5ecef" stop-opacity="1" id="SvgjsStop4349"></stop><stop offset="0.76" stop-color="#d8e2e7" stop-opacity="1" id="SvgjsStop4350"></stop></radialGradient><radialGradient class="svga-on-canvas-eyesfront-gradient-right-3" gradientUnits="userSpaceOnUse" gradientTransform="matrix(-0.9998 0.0208 -0.0166 -0.7998 244.9525 149.5433)" r="16.003" fy="84.527" fx="133.039" cy="84.496" cx="121.786" id="SvgjsRadialGradient4354"><stop offset="0" stop-color="#e7c1bd" stop-opacity="1" id="SvgjsStop4355"></stop><stop offset="0.7" stop-color="#e7c1bd" stop-opacity="0.3" id="SvgjsStop4356"></stop><stop offset="1" stop-color="#f6e4e2" stop-opacity="0" id="SvgjsStop4357"></stop></radialGradient><radialGradient class="svga-on-canvas-eyesfront-gradient-right-4" gradientUnits="userSpaceOnUse" gradientTransform="matrix(-1.0336 0 0 1.0336 201.6792 1.7282)" r="29.525" cy="107.529" cx="69.124" id="SvgjsRadialGradient4359"><stop offset="0.95" stop-color="#000000" stop-opacity="0" id="SvgjsStop4360"></stop><stop offset="1" stop-color="#000000" stop-opacity="0.3" id="SvgjsStop4361"></stop></radialGradient><linearGradient class="svga-on-canvas-chinshadow-gradient-single-0" gradientUnits="userSpaceOnUse" y2="136.351" x2="99.98" y1="171.27" x1="99.98" id="SvgjsLinearGradient4379"><stop offset="0" stop-color="#e7c1bd" stop-opacity="0.8" id="SvgjsStop4380"></stop><stop offset="0.7" stop-color="#c8837c" stop-opacity="1" id="SvgjsStop4381"></stop></linearGradient></defs></svg>