<?xml version="1.0" encoding="utf-8"?>
<!-- Generator: Adobe Illustrator 15.1.0, SVG Export Plug-In . SVG Version: 6.00 Build 0)  -->
<!DOCTYPE svg PUBLIC "-//W3C//DTD SVG 1.1//EN" "http://www.w3.org/Graphics/SVG/1.1/DTD/svg11.dtd">
<svg version="1.1" xmlns="http://www.w3.org/2000/svg" xmlns:xlink="http://www.w3.org/1999/xlink" x="0px" y="0px"
	 width="651.342px" height="628.16px" viewBox="-113.246 22.951 651.342 628.16"
	 enable-background="new -113.246 22.951 651.342 628.16" xml:space="preserve">
<g id="Ebene_2">
	<g>
		<path display="none" fill="#FFFFFF" stroke="#000000" stroke-width="16" d="M-16.629,119.605l8.186,343.846
			c5.848,245.548,428.03,245.548,433.879,0l8.174-343.846H-16.629z"/>
		<path fill="#0066CC" d="M-16.61,119.609l8.162,343.865c5.132,215.606,331.167,241.895,414.668,78.962L-16.61,119.609z"/>
		<path fill="none" stroke="#0066BF" stroke-width="7" d="M-16.629,119.605l8.186,343.846c5.848,245.548,428.03,245.548,433.879,0
			l8.174-343.846H-16.629z"/>
	</g>
</g>
<g id="Ebene_5">
	<rect x="418.525" y="102.5" fill="#FFFFFF" width="39.975" height="37"/>
</g>
<g id="Ebene_1">
	<g>
		<path fill="#0066CC" stroke="#FFFFFF" stroke-width="8.3" stroke-linecap="round" stroke-miterlimit="7" d="M438.796,216.773
			c0.01-0.036,0.023-0.065,0.025-0.096c1.896-9.659-1.49-13.678,14.508-28.044c20.664-18.566,51.832-33.371,63.529-34.319
			c-0.014,12.464-2.75,37.812-22.77,55.793c-11.637,10.456-25.832,16.759-42.193,18.718c-4.668,0.563-8.007,4.802-7.445,9.479
			c0.498,4.127,3.863,7.209,7.855,7.489c0.531,0.037,1.072,0.025,1.625-0.04c19.629-2.357,37.455-10.295,51.553-22.966
			c34.26-30.782,28.148-76.48,27.871-78.414c-0.568-3.971-3.836-7.009-7.838-7.29l-0.008,0c-1.678-0.117-41.465-2.487-75.824,28.379
			c-6.678,6.006-12.097,12.356-16.41,19.214c-3.318-7.404-7.795-14.435-13.578-21.311c-29.729-35.349-69.459-38.539-71.133-38.655
			h-0.012c-3.997-0.279-7.656,2.274-8.776,6.128c-0.548,1.875-12.956,46.278,16.69,81.528c12.2,14.51,28.75,24.857,47.86,29.917
			c0.536,0.142,1.069,0.229,1.601,0.266c3.993,0.279,7.755-2.305,8.822-6.322c1.202-4.554-1.508-9.216-6.059-10.423
			c-15.93-4.218-29.109-12.435-39.182-24.409c-17.314-20.59-16.508-46.074-14.772-58.419c11.452,2.574,34.036,10.097,51.917,31.366
			c13.839,16.459,16.146,31.43,16.68,41.258c-0.003,0.031-0.027,1.062-0.028,1.092"/>
		<g>
			<path fill="#0066CC" stroke="#FFFFFF" stroke-width="8.3" stroke-linecap="round" stroke-miterlimit="7" d="M436.796,317.061
				c0.01-0.036,0.023-0.065,0.025-0.096c1.896-9.659-1.49-13.678,14.508-28.044c20.664-18.566,51.832-33.371,63.529-34.32
				c-0.014,12.464-2.75,37.812-22.77,55.793c-11.637,10.456-25.832,16.759-42.193,18.718c-4.668,0.563-8.007,4.802-7.445,9.479
				c0.498,4.127,3.863,7.209,7.855,7.489c0.531,0.037,1.072,0.025,1.625-0.04c19.629-2.357,37.455-10.295,51.553-22.966
				c34.26-30.782,28.148-76.48,27.871-78.414c-0.568-3.972-3.836-7.01-7.838-7.29l-0.008-0.001
				c-1.678-0.117-41.465-2.487-75.824,28.379c-6.678,6.006-12.097,12.356-16.41,19.214c-3.318-7.404-7.795-14.435-13.578-21.311
				c-29.729-35.349-69.459-38.539-71.133-38.656h-0.012c-3.997-0.279-7.656,2.274-8.776,6.128
				c-0.548,1.876-12.956,46.279,16.69,81.529c12.2,14.51,28.75,24.857,47.86,29.917c0.536,0.142,1.069,0.229,1.601,0.266
				c3.993,0.279,7.755-2.305,8.822-6.322c1.202-4.554-1.508-9.216-6.059-10.423c-15.93-4.218-29.109-12.435-39.182-24.409
				c-17.314-20.59-16.508-46.074-14.772-58.419c11.452,2.573,34.036,10.097,51.917,31.366c13.839,16.459,16.146,31.43,16.68,41.258
				c-0.003,0.031-0.027,1.062-0.028,1.092"/>
		</g>
		<g>
			<path fill="#0066CC" stroke="#FFFFFF" stroke-width="8.3" stroke-linecap="round" stroke-miterlimit="7" d="M422.576,523.219
				c0.014-0.034,0.033-0.061,0.039-0.092c3.387-9.246,0.667-13.744,18.715-25.431c23.313-15.104,56.414-24.85,68.117-23.959
				c-1.965,12.311-8.632,36.919-31.219,51.546c-13.128,8.506-28.133,12.511-44.601,11.887c-4.7-0.175-8.66,3.488-8.839,8.201
				c-0.152,4.152,2.689,7.721,6.59,8.62c0.52,0.119,1.055,0.193,1.611,0.216c19.757,0.743,38.604-4.308,54.51-14.617
				c38.651-25.043,39.766-71.136,39.797-73.088c0.057-4.01-2.692-7.522-6.605-8.429h-0.008c-1.637-0.378-40.563-8.94-79.324,16.171
				c-7.537,4.886-13.885,10.309-19.217,16.409c-2.121-7.835-5.441-15.48-10.078-23.173c-23.832-39.563-62.575-48.929-64.211-49.309
				l-0.012-0.002c-3.902-0.9-7.916,1.048-9.624,4.682c-0.838,1.766-20.037,43.681,3.731,83.137
				c9.777,16.238,24.508,29.048,42.59,37.034c0.508,0.224,1.02,0.392,1.537,0.513c3.9,0.898,8.021-1.062,9.703-4.866
				c1.901-4.308-0.049-9.335-4.353-11.24c-15.076-6.659-26.806-16.837-34.877-30.236c-13.886-23.048-9.103-48.091-5.456-60.015
				c10.909,4.336,32.037,15.299,46.371,39.105c11.098,18.417,11.028,33.567,10.02,43.356c-0.008,0.026-0.193,1.043-0.199,1.074"/>
		</g>
		<g>
			<path fill="#0066CC" stroke="#FFFFFF" stroke-width="8.3" stroke-linecap="round" stroke-miterlimit="7" d="M434.244,418.015
				c0.012-0.036,0.025-0.064,0.027-0.096c2.065-9.625-1.25-13.702,14.996-27.787c20.984-18.204,52.406-32.462,64.118-33.207
				c-0.231,12.462-3.409,37.76-23.739,55.387c-11.817,10.252-26.121,16.307-42.514,17.98c-4.678,0.481-8.09,4.661-7.609,9.347
				c0.426,4.136,3.736,7.276,7.723,7.626c0.531,0.046,1.072,0.044,1.626-0.012c19.667-2.016,37.629-9.64,51.945-22.062
				c34.792-30.18,29.479-75.978,29.236-77.917c-0.499-3.98-3.714-7.075-7.71-7.426l-0.008-0.001
				c-1.676-0.146-41.416-3.21-76.309,27.052c-6.781,5.888-12.31,12.143-16.742,18.926c-3.189-7.461-7.541-14.569-13.205-21.546
				c-29.107-35.862-68.775-39.744-70.446-39.891h-0.012c-3.992-0.35-7.694,2.141-8.882,5.974
				c-0.581,1.865-13.762,46.046,15.264,81.808c11.945,14.721,28.312,25.355,47.332,30.749c0.533,0.151,1.064,0.247,1.596,0.294
				c3.987,0.348,7.793-2.17,8.931-6.168c1.282-4.533-1.347-9.242-5.876-10.528c-15.854-4.495-28.887-12.94-38.75-25.088
				c-16.951-20.891-15.7-46.357-13.75-58.669c11.406,2.773,33.854,10.689,51.362,32.268c13.549,16.699,15.595,31.707,15.956,41.544
				c-0.003,0.03-0.045,1.06-0.047,1.091"/>
		</g>
		<path fill="#0066CC" stroke="#FFFFFF" stroke-width="9" stroke-miterlimit="7" d="M419.179,146.607
			c4.266-1.988,6.12-7.056,4.131-11.328c-4.271-9.198-6.444-19.314-6.444-30.079c0-26.451,11.262-46.108,18.477-55.986
			c7.215,9.884,18.477,29.541,18.477,55.986c0,10.759-2.166,20.881-6.445,30.079c-1.988,4.266-0.135,9.34,4.137,11.328
			c4.266,1.983,9.334,0.129,11.322-4.137c5.332-11.469,8.029-24.002,8.029-37.265c0-46.194-28.354-74.205-29.559-75.374
			c-1.641-1.603-3.789-2.38-5.955-2.38c-2.16,0-4.314,0.777-5.961,2.375c-1.211,1.169-29.565,29.186-29.565,75.374
			c0,13.262,2.698,25.802,8.029,37.265C409.834,146.736,414.906,148.584,419.179,146.607z"/>
	</g>
	<g display="none">
		<path display="inline" d="M-6.864,209.033c0-0.031,0.013-0.061,0.013-0.092c1.218-9.768,4.565-24.541,19.517-39.994
			c19.321-19.97,42.375-25.9,53.979-27.668c0.869,12.436-0.104,37.913-18.812,57.247c-10.882,11.242-24.603,18.519-40.79,21.616
			c-4.621,0.887-7.65,5.349-6.769,9.976c0.783,4.082,4.357,6.922,8.359,6.922c0.532,0,1.071-0.049,1.616-0.153
			c19.418-3.715,36.646-12.882,49.829-26.506c32.031-33.097,22.754-78.256,22.338-80.166c-0.851-3.923-4.321-6.726-8.33-6.726
			h-0.012c-1.677,0-41.53,0.41-73.654,33.599c-6.248,6.457-11.206,13.158-15.03,20.312c-3.825-7.142-8.788-13.855-15.031-20.312
			c-32.124-33.189-71.978-33.599-73.66-33.599h-0.007c-4.014,0-7.484,2.803-8.328,6.726c-0.41,1.909-9.695,47.069,22.332,80.166
			c13.182,13.624,30.41,22.785,49.828,26.506c0.545,0.104,1.084,0.153,1.615,0.153c4.003,0,7.577-2.84,8.36-6.922
			c0.888-4.627-2.147-9.088-6.769-9.976c-16.182-3.097-29.902-10.374-40.783-21.616c-18.715-19.333-19.676-44.811-18.819-57.247
			c11.604,1.763,41.657,18.705,60.979,38.668c14.957,15.447,11.299,19.221,12.517,28.988c0,0.031,0.012,0.062,0.019,0.098"/>
		<path display="inline" d="M-3.706,325.863c0-0.03,0.01-0.062,0.008-0.092c0.706-9.818,3.275-24.747,17.397-40.961
			c18.25-20.954,40.961-28.083,52.456-30.456c1.519,12.373,1.88,37.866-15.791,58.153c-10.278,11.796-23.6,19.781-39.604,23.72
			c-4.567,1.127-7.358,5.742-6.236,10.316c0.995,4.036,4.714,6.685,8.71,6.475c0.532-0.028,1.066-0.105,1.605-0.238
			c19.197-4.726,35.922-14.782,48.373-29.077c30.256-34.728,18.629-79.34,18.113-81.224c-1.056-3.873-4.667-6.491-8.671-6.281
			l-0.012,0c-1.674,0.088-41.451,2.583-71.794,37.408c-5.901,6.775-10.501,13.727-13.947,21.071
			c-4.193-6.933-9.5-13.377-16.074-19.498c-33.816-31.461-73.637-29.786-75.317-29.698l-0.007,0.001
			c-4.007,0.209-7.327,3.192-7.964,7.152c-0.309,1.928-7.218,47.513,26.497,78.887c13.877,12.914,31.562,21.163,51.148,23.862
			c0.549,0.076,1.089,0.095,1.62,0.069c3.999-0.21,7.419-3.233,7.988-7.351c0.643-4.666-2.621-8.963-7.283-9.606
			c-16.322-2.247-30.404-8.795-41.858-19.452c-19.701-18.328-21.994-43.72-21.79-56.184c11.681,1.154,42.58,16.501,62.92,35.424
			c15.745,14.643,12.289,18.604,14.016,28.293c0.002,0.03,0.015,0.062,0.023,0.098"/>
		<path display="inline" d="M-1.183,439.668c-0.001-0.029,0.009-0.062,0.007-0.092c0.534-9.83,2.842-24.801,16.679-41.259
			c17.882-21.27,40.465-28.793,51.917-31.366c1.734,12.344,2.541,37.827-14.773,58.42c-10.071,11.973-23.251,20.189-39.184,24.408
			c-4.547,1.207-7.256,5.869-6.055,10.422c1.065,4.02,4.83,6.602,8.822,6.322c0.531-0.037,1.064-0.123,1.601-0.266
			c19.111-5.061,35.659-15.407,47.858-29.918c29.646-35.25,17.241-79.652,16.693-81.527c-1.123-3.854-4.779-6.408-8.779-6.129
			l-0.012,0.001c-1.672,0.117-41.399,3.306-71.131,38.656c-5.782,6.876-10.26,13.907-13.577,21.31
			c-4.313-6.858-9.732-13.208-16.411-19.215c-34.36-30.865-74.146-28.495-75.825-28.377l-0.007,0.001
			c-4.003,0.279-7.27,3.319-7.838,7.291c-0.275,1.933-6.388,47.632,27.869,78.412c14.101,12.67,31.927,20.609,51.558,22.967
			c0.55,0.064,1.091,0.075,1.621,0.039c3.994-0.279,7.361-3.361,7.859-7.49c0.561-4.675-2.777-8.916-7.449-9.477
			c-16.359-1.961-30.553-8.263-42.192-18.719c-20.018-17.982-22.753-43.329-22.767-55.795c11.699,0.95,42.861,15.755,63.528,34.321
			c15.998,14.367,12.611,18.386,14.508,28.044c0.002,0.03,0.016,0.062,0.024,0.098"/>
	</g>
</g>
</svg>
